<svg xmlns="http://www.w3.org/2000/svg" viewBox="0 0 661.1 641"><defs><style>.cls-1{fill:#fff;}.cls-2{fill:#151515;opacity:0.01;}.cls-4{fill:url(#down-up);}.cls-5{fill:url(#up-down);}

</style></defs><g id="business_layer"><g id="business_group">
<defs><linearGradient id="down-up" gradientTransform="rotate(90)"> <stop offset="0" stop-color="#FFFFFF"><animate attributeName="offset" dur="0.1s" values="1;0" begin="mask.mouseover" fill="freeze"/></stop><stop offset="0" stop-color="#b8eeb7"><animate attributeName="offset" dur="0.1s" values="1;0" begin="mask.mouseover" fill="freeze"/></stop></linearGradient><linearGradient id="up-down" gradientTransform="rotate(90)"><stop offset="0" stop-color="#FFFFFF"><animate attributeName="offset" dur="0.1s" values="0;1" begin="mask.mouseout" fill="freeze"/></stop><stop offset="0" stop-color="#b8eeb7"><animate attributeName="offset" dur="0.1s" values="0;1" begin="mask.mouseout" fill="freeze"/></stop></linearGradient></defs>
<path id="path" class="cls-1" d="M545.7,610.9H528.3V366.7c0-8.9-6.3-16.1-13.9-16.1H416.9V268.3c0-8.9-6.2-16.2-13.9-16.2H255.7c-7.6,0-13.9,7.3-13.9,16.2v82.3H146.7c-7.6,0-13.9,7.2-13.9,16.1V610.9H115.4v16H545.7ZM238.3,600.4H143.2V582.2h95.1Zm0-34H143.2V548.2h95.1Zm0-35.1H143.2V513.1h95.1Zm0-51.9v18.2H143.2V479h95.1Zm0-15.9H143.2V445.3h95.1Zm0-35H143.2V410.2h95.1Zm0-34.1H143.2V376.2h95.1ZM401.9,610.9h-145V586.6h145Zm0-43.2h-145V543.4h145Zm0-44.5h-145V498.9h145Zm0-43.2h-145V455.8h145Zm0-41.8h-145V414h145Zm0-43.1h-145V370.8h145Zm0-44.5h-145V326.3h145Zm0-43.2h-145V283.1h145ZM513.2,599.1H418.1V580.9h95.1Zm0-34.1H418.1V546.8h95.1Zm0-35H418.1V511.7h95.1Zm0-52v18.2H418.1V477.7h95.1Zm0-15.8H418.1V444h95.1Zm0-35.1H418.1V408.9h95.1Zm0-34.1H418.1V374.8h95.1Z"/></g></g><g id="maskam"><circle id="mask" class="cls-2" cx="330.5" cy="323.5" r="466.7"/></g>
<script type="text/javascript">const path = document.querySelector("#path");const mask = document.querySelector("#mask");mask.addEventListener("mouseover", function(e){    path.classList.remove("cls-1");    path.classList.remove("cls-5");    path.classList.add("cls-4");});mask.addEventListener("mouseout", function(e){    path.classList.remove("cls-1");    path.classList.remove("cls-4");    path.classList.add("cls-5");});</script>

</svg>