<svg xmlns="http://www.w3.org/2000/svg" viewBox="0 0 214.7 202.5"><g id="certified"><g id="certified-group"><circle cx="107.2" cy="90.1" r="79.8" style="fill:#0a2a29"/><circle cx="107.2" cy="90.1" r="70.8" style="fill:#f2dfc0"/><circle cx="107.2" cy="90.1" r="61.9" style="fill:#d99847"/><path d="M72.7,127.4a3.1,3.1,0,0,1-2-.5,2.6,2.6,0,0,1-1.2-1.5,4.6,4.6,0,0,1-.4-2.1h0a4.6,4.6,0,0,1,.4-2.1,4.4,4.4,0,0,1,1.2-1.5,3.8,3.8,0,0,1,1.9-.5,4,4,0,0,1,1.5.3,2.1,2.1,0,0,1,1,.6v1.7h-.8l-.2-1.3-.4-.2H72.6a2.5,2.5,0,0,0-1.3.4,2.7,2.7,0,0,0-.9,1.2,7,7,0,0,0-.2,1.6h0a4.8,4.8,0,0,0,.3,1.8,4.4,4.4,0,0,0,.8,1.1,3.3,3.3,0,0,0,1.5.3h.7a.8.8,0,0,0,.6-.2l.2-1.1h.8v1.7l-1.1.5Z" style="fill:#f2dfc0"/><path d="M78.3,127.3v-.7h.9v-6.4l-.9-.2v-.7h6v2h-.9v-1.1h-3v2.6h2.9v.9H80.3v2.9h3.1l.2-1.1h.8v1.9Z" style="fill:#f2dfc0"/><path d="M87.6,127.3v-.7h.9v-6.4l-.9-.2v-.7h3.6a3.3,3.3,0,0,1,1.5.3,1.8,1.8,0,0,1,.9.8,2.5,2.5,0,0,1,0,2.4,2.2,2.2,0,0,1-.9.7,2.8,2.8,0,0,1-1.3.3H89.6v2.8h.9v.7Zm2-4.5h1.5a2.3,2.3,0,0,0,1.3-.3,1.2,1.2,0,0,0,.4-1,1.1,1.1,0,0,0-.4-1,1.6,1.6,0,0,0-1.2-.4H89.6Zm3.3,4.5-1.8-4h1.1l1.5,3.2h.5v.7Z" style="fill:#f2dfc0"/><path d="M98.8,127.3v-.7h1v-6.4H97.9v1.1h-.9v-2h6.8v2h-.9v-1.1h-1.9v6.4h.9v.7Z" style="fill:#f2dfc0"/><path d="M106.7,127.3v-.7h.9v-6.4l-.9-.2v-.7h2.9v.7l-.9.2v6.4h.9v.7Z" style="fill:#f2dfc0"/><path d="M112.6,127.3v-.7h.9v-6.4l-.9-.2v-.7h6v2h-.8l-.2-1.1h-3.1v2.8h3v.8h-3v2.8h1v.7Z" style="fill:#f2dfc0"/><path d="M121.6,127.3v-.7h.9v-6.4l-.9-.2v-.7h2.9v.7l-.9.2v6.4h.9v.7Z" style="fill:#f2dfc0"/><path d="M127.4,127.3v-.7h.9v-6.4l-.9-.2v-.7h6v2h-.9v-1.1h-3v2.6h3v.9h-3v2.9h3.2v-1.1h.9v1.9Z" style="fill:#f2dfc0"/><path d="M136.7,127.3v-.7h.9v-6.4l-.9-.2v-.7h3.2a3.5,3.5,0,0,1,3.1,1.9,4.6,4.6,0,0,1,.4,2.1v.2a4.5,4.5,0,0,1-.4,2,4.1,4.1,0,0,1-1.2,1.4,3.8,3.8,0,0,1-1.9.5Zm2-.8h1.2a2.1,2.1,0,0,0,1.3-.5,1.9,1.9,0,0,0,.8-1.1,4,4,0,0,0,.3-1.5v-.2a4.1,4.1,0,0,0-.3-1.6,2.3,2.3,0,0,0-.8-1.1,2,2,0,0,0-1.3-.4h-1.2Z" style="fill:#f2dfc0"/><polygon points="101 136.8 105.4 141.3 113.5 133.2 105.4 138.5 101 136.8" style="fill:#f2dfc0"/><polygon points="205.8 108 8.7 108 17.2 90.1 8.7 72.2 205.8 72.2 197.1 90.1 205.8 108" style="fill:#0a2a29"/><path d="M107.2,176v13.4a99.9,99.9,0,0,1-32-5.3,99,99,0,0,1-50.8-39.2,100,100,0,0,1-13.3-29.6l13-3.4a86.3,86.3,0,0,0,55.4,59.5A87,87,0,0,0,107.2,176Z" style="fill:none"/><path d="M105.4,187.6a5.4,5.4,0,0,0,1.8-4.5,3.7,3.7,0,0,0-2.3.2,2.4,2.4,0,0,0-1.1.6l-.6.3-.5.5a5.5,5.5,0,0,0-2,4.5,5,5,0,0,0,2.4-.2A6.2,6.2,0,0,0,105.4,187.6Z" style="fill:#0a2a29"/><path d="M105.6,177.7a6.2,6.2,0,0,1,1.6,4.6,4.7,4.7,0,0,1-2.3-.3l-1.1-.6-.5-.4-.4-.5a5.7,5.7,0,0,1-1.4-4.7,3.9,3.9,0,0,1,2.1.4A5.5,5.5,0,0,1,105.6,177.7Z" style="fill:#0a2a29"/><path d="M98,187.2a4.7,4.7,0,0,0,1-1,4.1,4.1,0,0,0,.7-1.1,4.9,4.9,0,0,0,.4-2.3H99l-1.1.2a6.8,6.8,0,0,0-2.4,1.2l-.5.4-.5.5-.7,1.1a4.6,4.6,0,0,0-.6,2.3l1.1.2,1.3-.2A6,6,0,0,0,98,187.2Z" style="fill:#0a2a29"/><path d="M99,177.4l.7,1.1c.1.4.3.8.4,1.2a4.9,4.9,0,0,1,.1,2.4H99.1l-1.1-.4a6.3,6.3,0,0,1-2-1.7l-.3-.6a.9.9,0,0,1-.3-.6,5.6,5.6,0,0,1-.4-1.2,4.5,4.5,0,0,1,0-2.3,2.1,2.1,0,0,1,1.1.1l1,.4A6,6,0,0,1,99,177.4Z" style="fill:#0a2a29"/><path d="M90.7,186.2a5.2,5.2,0,0,0,2.4-4.2l-1.1-.2H90.9a6.6,6.6,0,0,0-2.5,1,8.5,8.5,0,0,0-1.9,1.9,4.8,4.8,0,0,0-.7,2.3l1.1.2h1.3A6.8,6.8,0,0,0,90.7,186.2Z" style="fill:#0a2a29"/><path d="M92.4,176.5a5.6,5.6,0,0,1,.8,4.8l-1-.2a2.2,2.2,0,0,1-1.1-.5,5.2,5.2,0,0,1-1.8-1.8,5.8,5.8,0,0,1-.7-4.8l1,.2,1,.5A5.2,5.2,0,0,1,92.4,176.5Z" style="fill:#0a2a29"/><path d="M83.5,184.7a5.4,5.4,0,0,0,2.7-4,4.3,4.3,0,0,0-2.3-.3,7.5,7.5,0,0,0-2.4.8,5.8,5.8,0,0,0-3,4,4.7,4.7,0,0,0,2.4.3l1.3-.2A3.8,3.8,0,0,0,83.5,184.7Z" style="fill:#0a2a29"/><path d="M85.9,175.1a6.6,6.6,0,0,1,.5,4.9,5.4,5.4,0,0,1-2.1-.8,5.9,5.9,0,0,1-2-6.8,3.2,3.2,0,0,1,2,.8,2.4,2.4,0,0,1,.8.9Z" style="fill:#0a2a29"/><path d="M76.4,182.6a5.1,5.1,0,0,0,3-3.8,4,4,0,0,0-2.2-.4l-1.3.2-1.3.4a5.5,5.5,0,0,0-3.2,3.7A5.5,5.5,0,0,0,76.4,182.6Z" style="fill:#0a2a29"/><path d="M79.5,173.3a5.8,5.8,0,0,1,.1,4.8,4,4,0,0,1-2-.9l-.9-.9-.6-1.2a5.6,5.6,0,0,1,.1-4.9A5.2,5.2,0,0,1,79.5,173.3Z" style="fill:#0a2a29"/><path d="M69.4,180a5.6,5.6,0,0,0,3.4-3.5,5.2,5.2,0,0,0-2.2-.7,8.5,8.5,0,0,0-2.6.5,6.1,6.1,0,0,0-3.6,3.4,6.2,6.2,0,0,0,2.4.8A6,6,0,0,0,69.4,180Z" style="fill:#0a2a29"/><path d="M73.3,170.9a5.9,5.9,0,0,1-.3,4.9,5.2,5.2,0,0,1-1.9-1.1,5.5,5.5,0,0,1-1.4-2.2,5.9,5.9,0,0,1,.5-4.9,3.6,3.6,0,0,1,1.8,1.2A7.4,7.4,0,0,1,73.3,170.9Z" style="fill:#0a2a29"/><path d="M62.7,176.9a5,5,0,0,0,3.6-3.3l-.4-.3-.6-.2-1.1-.3a6,6,0,0,0-2.6.3,5.5,5.5,0,0,0-3.8,3.1l1,.6,1.2.3A5,5,0,0,0,62.7,176.9Z" style="fill:#0a2a29"/><path d="M67.3,168.1a6.7,6.7,0,0,1-.6,4.9l-.6-.2-.4-.3a3.4,3.4,0,0,1-.9-.8,4.6,4.6,0,0,1-1.2-2.3,5.3,5.3,0,0,1,.9-4.8l.8.5a3,3,0,0,1,.8.8A6.6,6.6,0,0,1,67.3,168.1Z" style="fill:#0a2a29"/><path d="M56.3,173.3a5,5,0,0,0,2.4-1.2,3.9,3.9,0,0,0,1.4-1.8,1.8,1.8,0,0,0-.9-.6l-1.1-.4a8.2,8.2,0,0,0-2.7.1l-1.3.4-1.1.6a4.6,4.6,0,0,0-1.6,1.8l1,.7,1.2.4A6.1,6.1,0,0,0,56.3,173.3Z" style="fill:#0a2a29"/><path d="M61.5,164.9a11.3,11.3,0,0,1,0,2.6,4.6,4.6,0,0,1-1,2.1l-1-.5a3.6,3.6,0,0,1-.8-.9,5.4,5.4,0,0,1-1-2.3,6.6,6.6,0,0,1-.1-1.4c.1-.4.1-.9.2-1.3a5.5,5.5,0,0,1,1.1-2l.9.5a7.1,7.1,0,0,1,.7.9A5.4,5.4,0,0,1,61.5,164.9Z" style="fill:#0a2a29"/><path d="M50.1,169.2a5.3,5.3,0,0,0,4.1-2.8,5.8,5.8,0,0,0-4.6-1.2l-1.4.3-1.2.6a4.1,4.1,0,0,0-1.6,1.6,2.4,2.4,0,0,0,.9.8l1.1.5A6.2,6.2,0,0,0,50.1,169.2Z" style="fill:#0a2a29"/><path d="M55.9,161.2a6.1,6.1,0,0,1-1.3,4.7,5,5,0,0,1-2.5-4v-1.4l.3-1.2a5.8,5.8,0,0,1,1.3-2l.8.6.7.9A6.1,6.1,0,0,1,55.9,161.2Z" style="fill:#0a2a29"/><path d="M44.3,164.6a5.2,5.2,0,0,0,4.3-2.4,6.2,6.2,0,0,0-1.9-1.2,7.7,7.7,0,0,0-2.7-.4,6.6,6.6,0,0,0-2.5.7,4.5,4.5,0,0,0-1.8,1.5l.8.8a3,3,0,0,0,1.1.6A5,5,0,0,0,44.3,164.6Z" style="fill:#0a2a29"/><path d="M50.7,157.1a6.1,6.1,0,0,1-1.7,4.6,5,5,0,0,1-1.5-1.7,6.6,6.6,0,0,1-.7-2.5,7.5,7.5,0,0,1,.5-2.6,9.4,9.4,0,0,1,1.4-1.9l.8.7a3.3,3.3,0,0,1,.6,1A4.5,4.5,0,0,1,50.7,157.1Z" style="fill:#0a2a29"/><path d="M38.9,159.7a5.8,5.8,0,0,0,4.4-2.1,4.9,4.9,0,0,0-1.8-1.4,7.6,7.6,0,0,0-2.6-.6,5.9,5.9,0,0,0-4.6,1.9,6,6,0,0,0,1.9,1.6A7.6,7.6,0,0,0,38.9,159.7Z" style="fill:#0a2a29"/><path d="M45.8,152.6a6.3,6.3,0,0,1-2,4.4,3.9,3.9,0,0,1-1.4-1.7,5.5,5.5,0,0,1-.5-2.6,5.8,5.8,0,0,1,2.2-4.3,3.7,3.7,0,0,1,1.3,1.7A6.9,6.9,0,0,1,45.8,152.6Z" style="fill:#0a2a29"/><path d="M33.8,154.3a5.6,5.6,0,0,0,4.6-1.8,4.5,4.5,0,0,0-1.8-1.5l-.5-.2-.6-.3-1.4-.2a5.7,5.7,0,0,0-4.7,1.5,4.9,4.9,0,0,0,1.8,1.7l1.2.5A5.8,5.8,0,0,0,33.8,154.3Z" style="fill:#0a2a29"/><path d="M41.2,147.8a5.9,5.9,0,0,1-2.3,4.2,4,4,0,0,1-1.3-1.8c-.1-.2-.1-.4-.2-.6a1.3,1.3,0,0,0-.1-.6,6.6,6.6,0,0,1,.1-1.4,5.5,5.5,0,0,1,2.5-4.1,3.3,3.3,0,0,1,1.1,1.8,5,5,0,0,1,.2,1.2A2.8,2.8,0,0,1,41.2,147.8Z" style="fill:#0a2a29"/><path d="M29.1,148.5a5.3,5.3,0,0,0,4.7-1.4,4.1,4.1,0,0,0-1.6-1.6l-1.1-.6-1.3-.3a5.8,5.8,0,0,0-4.8,1.1,4.8,4.8,0,0,0,1.6,1.9l1.2.6Z" style="fill:#0a2a29"/><path d="M37,142.6a5.7,5.7,0,0,1-2.6,4.1,4.3,4.3,0,0,1-1.1-2,5,5,0,0,1-.2-1.2,5.7,5.7,0,0,1,.1-1.3,5.6,5.6,0,0,1,2.9-4,4.2,4.2,0,0,1,.9,1.9c.1.4.1.8.2,1.2A5.9,5.9,0,0,1,37,142.6Z" style="fill:#0a2a29"/><path d="M24.9,142.5a5.5,5.5,0,0,0,4.8-1.1,4,4,0,0,0-1.5-1.7,5.5,5.5,0,0,0-2.3-1.1,5.8,5.8,0,0,0-4.9.7,4.8,4.8,0,0,0,1.5,2A9,9,0,0,0,24.9,142.5Z" style="fill:#0a2a29"/><path d="M33.3,137.1a6.1,6.1,0,0,1-3,3.9,4.2,4.2,0,0,1-1-2,5.9,5.9,0,0,1,.2-2.6,5.6,5.6,0,0,1,3.1-3.7,4,4,0,0,1,.8,2A6.6,6.6,0,0,1,33.3,137.1Z" style="fill:#0a2a29"/><path d="M21.2,136.1a5.2,5.2,0,0,0,4.8-.7c0-.2-.1-.3-.2-.5l-.3-.5-.8-.9a5.6,5.6,0,0,0-2.3-1.2,5.5,5.5,0,0,0-4.9.4,4.7,4.7,0,0,0,.5,1l.4.6.4.4A7.2,7.2,0,0,0,21.2,136.1Z" style="fill:#0a2a29"/><path d="M29.9,131.4a5.8,5.8,0,0,1-3.2,3.6c-.2-.1-.3-.2-.3-.4l-.3-.5-.3-1.2a5.7,5.7,0,0,1,.4-2.5,5.6,5.6,0,0,1,3.4-3.5,3,3,0,0,1,.4,1c.1.1.1.3.2.5a.7.7,0,0,0,.1.5A7.7,7.7,0,0,1,29.9,131.4Z" style="fill:#0a2a29"/><path d="M18,129.4a4.8,4.8,0,0,0,2.6.4,4.1,4.1,0,0,0,2.2-.7,4.2,4.2,0,0,0-.4-1l-.7-.9a8.6,8.6,0,0,0-2.2-1.5l-1.4-.4H16.8a4,4,0,0,0-2.2.6,3,3,0,0,0,.4,1.1,5.2,5.2,0,0,0,3,2.5Z" style="fill:#0a2a29"/><path d="M27,125.4a7.1,7.1,0,0,1-1.5,2.2,4.7,4.7,0,0,1-2,1.2,3.1,3.1,0,0,1-.5-1,3.6,3.6,0,0,1-.2-1.1,8,8,0,0,1,.5-2.6L24,123l.9-1a5,5,0,0,1,2.1-1,2.5,2.5,0,0,1,.4.9,4.1,4.1,0,0,1,.1,1.1A5.2,5.2,0,0,1,27,125.4Z" style="fill:#0a2a29"/><path d="M17.9,121.2a1.4,1.4,0,0,0,.2.7l.4.6.8,1a4.4,4.4,0,0,0,2,1.1,5.2,5.2,0,0,0,.7-2.2v-1.2c-.1-.2-.1-.4-.2-.6s-.1-.5-.1-.7a19.6,19.6,0,0,0-1.7-3l-2.4-3.3c0,1.2-.2,2.7-.2,4.1A15.4,15.4,0,0,0,17.9,121.2Z" style="fill:#0a2a29"/><path d="M107.2,176v13.4a100,100,0,0,0,32.1-5.3A99.3,99.3,0,0,0,190,144.9a95.2,95.2,0,0,0,13.3-29.6l-13-3.4a83.2,83.2,0,0,1-11.5,25.6A85.9,85.9,0,0,1,107.2,176Z" style="fill:none"/><path d="M109,187.6a5.3,5.3,0,0,1-1.7-4.5,4.8,4.8,0,0,1,3.4.8l.5.3.6.5a5.8,5.8,0,0,1,2,4.5,4.9,4.9,0,0,1-2.4-.2A5.8,5.8,0,0,1,109,187.6Z" style="fill:#0a2a29"/><path d="M108.9,177.7a5.8,5.8,0,0,0-1.6,4.6,4.2,4.2,0,0,0,2.2-.3,3,3,0,0,0,1.1-.6l.5-.4.5-.5a5.6,5.6,0,0,0,1.3-4.7,4.1,4.1,0,0,0-2.1.4A5.3,5.3,0,0,0,108.9,177.7Z" style="fill:#0a2a29"/><path d="M116.4,187.2a4.7,4.7,0,0,1-1-1,3.9,3.9,0,0,1-.6-1.1,5,5,0,0,1-.5-2.3h1.1l1.2.2a5.7,5.7,0,0,1,2.3,1.2l.6.4.4.5a7.6,7.6,0,0,1,.8,1.1,4.6,4.6,0,0,1,.6,2.3l-1.2.2-1.3-.2A6.8,6.8,0,0,1,116.4,187.2Z" style="fill:#0a2a29"/><path d="M115.5,177.4a4.1,4.1,0,0,0-.7,1.1,6.1,6.1,0,0,0-.5,1.2,4.9,4.9,0,0,0,0,2.4h1.1l1.1-.4a5.1,5.1,0,0,0,1.9-1.7l.4-.6.3-.6a5.6,5.6,0,0,0,.4-1.2,5.9,5.9,0,0,0-.1-2.3,1.7,1.7,0,0,0-1,.1l-1,.4A5.1,5.1,0,0,0,115.5,177.4Z" style="fill:#0a2a29"/><path d="M123.7,186.2a5.5,5.5,0,0,1-2.4-4.2l1.1-.2h1.2a6.2,6.2,0,0,1,2.4,1,8.5,8.5,0,0,1,1.9,1.9,4.9,4.9,0,0,1,.8,2.3l-1.2.2h-1.2A6.6,6.6,0,0,1,123.7,186.2Z" style="fill:#0a2a29"/><path d="M122.1,176.5a6,6,0,0,0-.9,4.8l1.1-.2a2.7,2.7,0,0,0,1.1-.5,5.2,5.2,0,0,0,1.8-1.8,5.8,5.8,0,0,0,.9-2.5,4.5,4.5,0,0,0-.3-2.3l-1,.2-1,.5A5.9,5.9,0,0,0,122.1,176.5Z" style="fill:#0a2a29"/><path d="M131,184.7a5.5,5.5,0,0,1-2.8-4,4.5,4.5,0,0,1,2.3-.3,8.1,8.1,0,0,1,2.5.8,6.1,6.1,0,0,1,3,4,4.8,4.8,0,0,1-2.4.3l-1.3-.2A3.1,3.1,0,0,1,131,184.7Z" style="fill:#0a2a29"/><path d="M128.6,175.1a5.8,5.8,0,0,0-.5,4.9,6,6,0,0,0,2.1-.8,8.5,8.5,0,0,0,1.7-2,5.8,5.8,0,0,0,.2-4.8,2.9,2.9,0,0,0-1.9.8,3.8,3.8,0,0,0-.9.9A8.6,8.6,0,0,0,128.6,175.1Z" style="fill:#0a2a29"/><path d="M138.1,182.6a5.3,5.3,0,0,1-3.1-3.8,4.3,4.3,0,0,1,2.3-.4l1.2.2,1.3.4a5.7,5.7,0,0,1,3.3,3.7A5.5,5.5,0,0,1,138.1,182.6Z" style="fill:#0a2a29"/><path d="M135,173.3a5.8,5.8,0,0,0-.2,4.8,4.8,4.8,0,0,0,2.1-.9l.8-.9a7.5,7.5,0,0,0,.7-1.2,5.9,5.9,0,0,0-.1-4.9A4.8,4.8,0,0,0,135,173.3Z" style="fill:#0a2a29"/><path d="M145,180a5.2,5.2,0,0,1-3.3-3.5,4.8,4.8,0,0,1,2.2-.7,8.5,8.5,0,0,1,2.6.5,5.9,5.9,0,0,1,3.5,3.4,5.2,5.2,0,0,1-2.3.8A6.5,6.5,0,0,1,145,180Z" style="fill:#0a2a29"/><path d="M141.2,170.9a6.3,6.3,0,0,0,.2,4.9,5.6,5.6,0,0,0,2-1.1,6.7,6.7,0,0,0,1.3-2.2,5.5,5.5,0,0,0-.5-4.9,3.8,3.8,0,0,0-1.7,1.2A5.7,5.7,0,0,0,141.2,170.9Z" style="fill:#0a2a29"/><path d="M151.7,176.9a5.4,5.4,0,0,1-3.6-3.3l.5-.3.5-.2,1.2-.3a6,6,0,0,1,2.6.3,5.8,5.8,0,0,1,3.8,3.1l-1.1.6a2.1,2.1,0,0,1-1.2.3A5.1,5.1,0,0,1,151.7,176.9Z" style="fill:#0a2a29"/><path d="M147.2,168.1a6.3,6.3,0,0,0,.6,4.9l.5-.2.5-.3.9-.8a7.1,7.1,0,0,0,1.2-2.3,6,6,0,0,0-.9-4.8l-.9.5-.8.8A5.1,5.1,0,0,0,147.2,168.1Z" style="fill:#0a2a29"/><path d="M158.2,173.3a5.3,5.3,0,0,1-2.5-1.2,5.9,5.9,0,0,1-1.4-1.8,2.1,2.1,0,0,1,1-.6l1.1-.4a7.7,7.7,0,0,1,2.6.1l1.4.4,1.1.6a4.3,4.3,0,0,1,1.5,1.8,3.1,3.1,0,0,1-.9.7l-1.2.4A6.1,6.1,0,0,1,158.2,173.3Z" style="fill:#0a2a29"/><path d="M153,164.9a5.7,5.7,0,0,0,0,2.6,5.8,5.8,0,0,0,.9,2.1,3.1,3.1,0,0,0,1-.5,2.4,2.4,0,0,0,.8-.9,4.4,4.4,0,0,0,1-2.3,6.6,6.6,0,0,0,.1-1.4,5.9,5.9,0,0,0-.2-1.3,4.3,4.3,0,0,0-1.1-2l-.8.5a3.4,3.4,0,0,0-.8.9A6.9,6.9,0,0,0,153,164.9Z" style="fill:#0a2a29"/><path d="M164.3,169.2a5.5,5.5,0,0,1-4.1-2.8,6,6,0,0,1,4.7-1.2l1.3.3,1.2.6a5.2,5.2,0,0,1,1.7,1.6l-.9.8-1.2.5A6,6,0,0,1,164.3,169.2Z" style="fill:#0a2a29"/><path d="M158.5,161.2a6.1,6.1,0,0,0,1.3,4.7,5,5,0,0,0,2.5-4,3.3,3.3,0,0,0,0-1.4,2.7,2.7,0,0,0-.3-1.2,5.6,5.6,0,0,0-1.2-2l-.8.6-.7.9A6.2,6.2,0,0,0,158.5,161.2Z" style="fill:#0a2a29"/><path d="M170.1,164.6a5.1,5.1,0,0,1-4.2-2.4,4.4,4.4,0,0,1,1.9-1.2,7.5,7.5,0,0,1,2.6-.4,7.1,7.1,0,0,1,2.6.7,5.4,5.4,0,0,1,1.8,1.5,5.4,5.4,0,0,1-2,1.4A4.8,4.8,0,0,1,170.1,164.6Z" style="fill:#0a2a29"/><path d="M163.8,157.1a6,6,0,0,0,1.6,4.6A5.2,5.2,0,0,0,167,160a6.6,6.6,0,0,0,.6-2.5,7.5,7.5,0,0,0-.5-2.6,5.2,5.2,0,0,0-1.4-1.9l-.8.7-.6,1A5.7,5.7,0,0,0,163.8,157.1Z" style="fill:#0a2a29"/><path d="M175.6,159.7a5.6,5.6,0,0,1-4.4-2.1,3.7,3.7,0,0,1,1.8-1.4,6.6,6.6,0,0,1,2.6-.6,5.6,5.6,0,0,1,4.5,1.9,5.1,5.1,0,0,1-1.9,1.6A6.6,6.6,0,0,1,175.6,159.7Z" style="fill:#0a2a29"/><path d="M168.7,152.6a5.6,5.6,0,0,0,2,4.4,3.9,3.9,0,0,0,1.4-1.7,5.5,5.5,0,0,0,.4-2.6,5.8,5.8,0,0,0-2.2-4.3,3.5,3.5,0,0,0-1.2,1.7A5.3,5.3,0,0,0,168.7,152.6Z" style="fill:#0a2a29"/><path d="M180.7,154.3a5.3,5.3,0,0,1-4.6-1.8,5,5,0,0,1,1.7-1.5l.6-.2.6-.3,1.3-.2a5.6,5.6,0,0,1,4.7,1.5,5.5,5.5,0,0,1-1.7,1.7l-1.3.5A6.1,6.1,0,0,1,180.7,154.3Z" style="fill:#0a2a29"/><path d="M173.2,147.8a5.6,5.6,0,0,0,2.4,4.2,3.8,3.8,0,0,0,1.2-1.8,1.4,1.4,0,0,0,.2-.6,1.3,1.3,0,0,0,.1-.6,6.6,6.6,0,0,0,0-1.4,5.6,5.6,0,0,0-2.6-4.1,4,4,0,0,0-1.1,1.8c-.1.4-.1.8-.2,1.2Z" style="fill:#0a2a29"/><path d="M185.3,148.5a5.4,5.4,0,0,1-4.7-1.4,4.9,4.9,0,0,1,1.6-1.6l1.2-.6a5,5,0,0,1,1.3-.3,5.9,5.9,0,0,1,4.8,1.1,5.1,5.1,0,0,1-1.7,1.9l-1.1.6A7,7,0,0,1,185.3,148.5Z" style="fill:#0a2a29"/><path d="M177.4,142.6a5.8,5.8,0,0,0,2.7,4.1,4.3,4.3,0,0,0,1.1-2,5,5,0,0,0,.2-1.2c0-.4-.1-.9-.1-1.3a5.9,5.9,0,0,0-2.9-4,4.4,4.4,0,0,0-1,1.9c0,.4-.1.8-.1,1.2A5.7,5.7,0,0,0,177.4,142.6Z" style="fill:#0a2a29"/><path d="M189.5,142.5a5.6,5.6,0,0,1-4.8-1.1,4,4,0,0,1,1.5-1.7,6.6,6.6,0,0,1,2.4-1.1,5.5,5.5,0,0,1,4.8.7,5.6,5.6,0,0,1-1.4,2A8.3,8.3,0,0,1,189.5,142.5Z" style="fill:#0a2a29"/><path d="M181.2,137.1a5.8,5.8,0,0,0,3,3.9,4.1,4.1,0,0,0,.9-2,4.6,4.6,0,0,0-.1-2.6,5.7,5.7,0,0,0-3.2-3.7,4,4,0,0,0-.8,2A5,5,0,0,0,181.2,137.1Z" style="fill:#0a2a29"/><path d="M193.3,136.1a5.4,5.4,0,0,1-4.9-.7c.1-.2.2-.3.2-.5l.3-.5.8-.9a5.6,5.6,0,0,1,2.3-1.2,5.5,5.5,0,0,1,4.9.4,4.7,4.7,0,0,1-.5,1l-.3.6-.5.4A5.9,5.9,0,0,1,193.3,136.1Z" style="fill:#0a2a29"/><path d="M184.5,131.4a6.2,6.2,0,0,0,3.3,3.6l.3-.4c.1-.2.2-.3.2-.5a2.7,2.7,0,0,0,.3-1.2,5.5,5.5,0,0,0-.3-2.5,5.9,5.9,0,0,0-3.4-3.5,3.1,3.1,0,0,0-.5,1,4.3,4.3,0,0,0-.1.5,1.1,1.1,0,0,0-.1.5A5.5,5.5,0,0,0,184.5,131.4Z" style="fill:#0a2a29"/><path d="M196.5,129.4a5.1,5.1,0,0,1-2.7.4,4.1,4.1,0,0,1-2.2-.7l.5-1,.7-.9a7.1,7.1,0,0,1,2.2-1.5l1.3-.4h1.3a4.4,4.4,0,0,1,2.3.6,7.6,7.6,0,0,1-.4,1.1l-.8,1A5.7,5.7,0,0,1,196.5,129.4Z" style="fill:#0a2a29"/><path d="M187.5,125.4a5.5,5.5,0,0,0,1.4,2.2,5,5,0,0,0,2.1,1.2,3,3,0,0,0,.4-1,3.6,3.6,0,0,0,.2-1.1,6,6,0,0,0-.5-2.6,4.1,4.1,0,0,0-.7-1.1l-.9-1a4.5,4.5,0,0,0-2.1-1,2.4,2.4,0,0,0-.3.9,4.3,4.3,0,0,0-.2,1.1A5.3,5.3,0,0,0,187.5,125.4Z" style="fill:#0a2a29"/><path d="M196.6,121.2l-.3.7-.3.6-.8,1a4.4,4.4,0,0,1-2,1.1,5.3,5.3,0,0,1-.8-2.2,4.9,4.9,0,0,1,.1-1.2,1.3,1.3,0,0,1,.1-.6c.1-.2.1-.5.2-.7a13.7,13.7,0,0,1,1.7-3l2.3-3.3c.1,1.2.2,2.7.2,4.1A11.6,11.6,0,0,1,196.6,121.2Z" style="fill:#0a2a29"/><circle cx="107.2" cy="182.7" r="9.6" style="fill:#0a2a29"/><circle cx="107.2" cy="182.7" r="5.8" style="fill:#d99847"/><path d="M90.6,49.8v-1l.8-.2V47.4l-2.2-3.8-.7-.2v-1h3.2v1h-.5l1,2.1v.2h.1v-.2l1.2-2.1h-.8v-1h3.2v1l-.8.2-2.1,3.6v1.4l.7.2v1Z" style="fill:#f2dfc0"/><path d="M102.4,49.9l-1.5-.2-1.1-.8a7.5,7.5,0,0,1-.7-1.2,4,4,0,0,1-.3-1.5h0a3.3,3.3,0,0,1,.3-1.5,3.5,3.5,0,0,1,.7-1.2,2.8,2.8,0,0,1,1.1-.8,3.5,3.5,0,0,1,1.4-.3,3.7,3.7,0,0,1,1.5.3,2.8,2.8,0,0,1,1.1.8,2.4,2.4,0,0,1,.7,1.2,3.3,3.3,0,0,1,.3,1.5h0a4,4,0,0,1-.3,1.5,3.7,3.7,0,0,1-.7,1.2l-1.1.8Zm0-1.3a1.4,1.4,0,0,0,.9-.3,1.5,1.5,0,0,0,.6-.9,2.2,2.2,0,0,0,.2-1.2V46a2.5,2.5,0,0,0-.2-1.2,1.2,1.2,0,0,0-.6-.8,1.7,1.7,0,0,0-1-.3l-.9.2a1.5,1.5,0,0,0-.6.9,4.3,4.3,0,0,0-.2,1.2v.2a3.7,3.7,0,0,0,.2,1.2,1.5,1.5,0,0,0,.6.9A1.5,1.5,0,0,0,102.4,48.6Z" style="fill:#f2dfc0"/><path d="M112.5,49.9a3.8,3.8,0,0,1-1.6-.3,2,2,0,0,1-1.1-.9,2.3,2.3,0,0,1-.4-1.4V43.6l-.8-.2v-1h3.3v1l-.7.2v3.7a1.5,1.5,0,0,0,.1.7,1,1,0,0,0,.5.4l.7.2.8-.2.4-.4a1.4,1.4,0,0,0,.2-.7V43.6l-.8-.2v-1h3.3v1l-.7.2v3.7a3.3,3.3,0,0,1-.4,1.4,3.1,3.1,0,0,1-1.1.9A4.7,4.7,0,0,1,112.5,49.9Z" style="fill:#f2dfc0"/><path d="M119,49.8v-1l.8-.2v-5l-.8-.2v-1h3.7a3.3,3.3,0,0,1,1.5.3,1.6,1.6,0,0,1,1,.8,1.6,1.6,0,0,1,.4,1.2,1.9,1.9,0,0,1-.4,1.2,1.8,1.8,0,0,1-1,.9,2.1,2.1,0,0,1-1.4.3h-1.2v1.5l.8.2v1Zm2.6-4h1.1a1,1,0,0,0,.8-.3,1,1,0,0,0,0-1.4,1.1,1.1,0,0,0-.8-.3h-1.1Zm2.1,4-1-2.9,1.6-.5.9,2.2.7.2v1Z" style="fill:#f2dfc0"/><path d="M84.1,63.7v-1l.7-.2v-5l-.7-.2v-1h3.3a4.2,4.2,0,0,1,2.2.5,1.8,1.8,0,0,1,.8,1.5,1.7,1.7,0,0,1-.3,1,1.1,1.1,0,0,1-.7.6l.7.3a2.1,2.1,0,0,1,.4.6,1.7,1.7,0,0,1,.1.7,2.1,2.1,0,0,1-.7,1.7,4.1,4.1,0,0,1-2.1.5Zm2.5-4.3h.7a2.2,2.2,0,0,0,1-.2.9.9,0,0,0,.3-.7.6.6,0,0,0-.3-.6c-.2-.2-.5-.2-.9-.2h-.8Zm0,3h1.2a1.1,1.1,0,0,0,.8-.3.6.6,0,0,0,.3-.6,4.3,4.3,0,0,0-.1-.5c-.1-.2-.2-.3-.4-.3H86.6Z" style="fill:#f2dfc0"/><path d="M93.3,63.7v-1l.8-.2v-5l-.8-.2v-1h3.6a4.1,4.1,0,0,1,1.6.3,1.9,1.9,0,0,1,1,.8,2.1,2.1,0,0,1,.3,1.2,2.7,2.7,0,0,1-.3,1.2,2.8,2.8,0,0,1-1,.9,3.2,3.2,0,0,1-1.4.3H95.8v1.5l.8.2v1Zm2.5-4.1H97a1.1,1.1,0,0,0,.8-.2,1.4,1.4,0,0,0,.2-.7,1.9,1.9,0,0,0-.2-.8l-.9-.2H95.8ZM98,63.7l-1-2.9,1.5-.5.9,2.2.7.2v1Z" style="fill:#f2dfc0"/><path d="M102.7,63.7v-1h.6l2.2-6.3h1.9l2.2,6.3h.6v1h-2.8v-1h.5l-.3-.8h-2.3l-.3.8h.5v1Zm2.9-3.2h1.7l-.8-2.2V58h-.1v.3Z" style="fill:#f2dfc0"/><path d="M112.8,63.7v-1l.7-.2v-5l-.7-.2v-1h2.6l2.9,4.7h.1V57.5l-1-.2v-1h3.3v1l-.7.2v6.2h-1.8l-3-4.6h-.1v3.4l1,.2v1Z" style="fill:#f2dfc0"/><path d="M123.3,63.7v-1l.8-.2v-5l-.8-.2v-1h3.5a2.9,2.9,0,0,1,1.8.5,3.4,3.4,0,0,1,1.2,1.2,4.1,4.1,0,0,1,.4,1.9v.2a4.1,4.1,0,0,1-.4,1.9,4.9,4.9,0,0,1-1.2,1.3,3.7,3.7,0,0,1-1.8.4Zm2.6-1.3h.8a1.2,1.2,0,0,0,.9-.3,1.6,1.6,0,0,0,.6-.8,2.5,2.5,0,0,0,.2-1.2v-.2a2.5,2.5,0,0,0-.2-1.2,1.6,1.6,0,0,0-.6-.8,1.2,1.2,0,0,0-.9-.3h-.8Z" style="fill:#f2dfc0"/><path d="M38.4,96.5V94.3L40,94V83.4l-1.6-.3V80.9h7v2.2l-1.6.3v4h5.7v-4l-1.6-.3V80.9h7v2.2l-1.6.3V94l1.6.3v2.2h-7V94.3l1.6-.3V90.3H43.8V94l1.6.3v2.2Z" style="fill:#f2dfc0"/><path d="M59.7,96.5V94.3l1.6-.3V83.4l-1.6-.3V80.9h7v2.2l-1.6.3V94l1.6.3v2.2Z" style="fill:#f2dfc0"/><path d="M79,96.8a7.3,7.3,0,0,1-4.1-1,5.9,5.9,0,0,1-2.6-2.6,8,8,0,0,1-.9-3.9v-.7a8.8,8.8,0,0,1,.9-4.1,6.2,6.2,0,0,1,2.5-2.8,7.2,7.2,0,0,1,4-1,8.9,8.9,0,0,1,3.2.5,8,8,0,0,1,2.9,1.5v3.7H82.2l-.6-2a2.6,2.6,0,0,0-1-.7l-1.5-.2a3.8,3.8,0,0,0-2.2.6,4.6,4.6,0,0,0-1.3,1.8,7.7,7.7,0,0,0-.4,2.7v.7a6.6,6.6,0,0,0,.4,2.5,4.2,4.2,0,0,0,1.3,1.6,5.1,5.1,0,0,0,2.2.5h1.4l1-.3v-2l-1.8-.2V88.6h5.6v6.5a9.5,9.5,0,0,1-2.9,1.3A17.6,17.6,0,0,1,79,96.8Z" style="fill:#f2dfc0"/><path d="M90.5,96.5V94.3l1.6-.3V83.4l-1.6-.3V80.9h7v2.2l-1.6.3v4h5.7v-4l-1.7-.3V80.9h7v2.2l-1.6.3V94l1.6.3v2.2h-7V94.3l1.7-.3V90.3H95.9V94l1.6.3v2.2Z" style="fill:#f2dfc0"/><path d="M121.1,96.5V94.3l1.6-.3V83.4l-1.6-.3V80.9h7.4v2.2l-2,.3V93.6h3.7V91.5h2.9v5Z" style="fill:#f2dfc0"/><path d="M141.1,96.5l-4.9-13.2-1.5-.2V80.9h7v2.2l-1.4.2,2.8,8.8.2.6h.1v-.6l2.7-8.8-1.7-.2V80.9h6.6v2.2l-1.5.2-4.4,13.2Z" style="fill:#f2dfc0"/><path d="M155.6,96.5V94.3l1.7-.3V83.4l-1.7-.3V80.9H163v2.2l-2,.3V93.6h3.7V91.5h2.9v5Z" style="fill:#f2dfc0"/></g></g><g id="maskam"><rect id="mask" x="-0.3" y="0.3" width="215" height="202" style="fill:#fff;opacity:0.01"/></g></svg>