<svg xmlns="http://www.w3.org/2000/svg" viewBox="0 0 709.7 674.1"><defs><style>.cls-1{fill:#fff;}.cls-2,.cls-3{fill:#4169e1;}.cls-2{stroke:#13203f;stroke-miterlimit:10;stroke-width:16px;}.cls-4{fill:#172642;opacity:0.1;}.cls-5{fill:#151515;opacity:0.01;}</style></defs><g id="download-home-layer"><polygon class="cls-1" points="191 84.5 191 179.1 174.6 190.7 133.3 190.7 133.3 84.5 191 84.5"/><rect class="cls-1" x="48.5" y="633.9" width="612.6" height="30.38"/><path class="cls-1" d="M354.8,73.1,79.9,268V633.9h71V365.5H312.6V633.9H629.8V268ZM558.7,538.9H395.6V316.1H558.7Z"/><polygon class="cls-1" points="684.4 257.9 629.8 257.9 354.8 62.9 191 179.1 174.6 190.7 79.8 257.9 25.4 257.9 133.3 181.3 191 140.4 354.8 24.3 684.4 257.9"/></g><g id="maskam"><g id="download-home-layer-2"><g id="lock-group"><path id="lock-5" class="cls-2" d="M515.9,654.7c-66.4-40.1-158.4-126.4-158.4-215.2V308.6c25.4-5.9,63.6-15.3,80.6-21.5s55.5-25.3,77.8-36.6c22.3,11.3,59.8,30.1,77.8,36.6s55.2,15.6,80.6,21.5V439.5C674.3,528.3,582.2,614.6,515.9,654.7Z"/><rect id="lock-3" class="cls-1" x="429.4" y="422.8" width="173" height="142.14" rx="24.2"/><path id="lock-2" class="cls-3" d="M534.4,475.8a18.4,18.4,0,0,1-8.4,15.5,4.5,4.5,0,0,0-1.9,3.5v30.5a4.1,4.1,0,0,1-4.1,4.1h-8.2a4.1,4.1,0,0,1-4.1-4.1V494.8a3.9,3.9,0,0,0-1.9-3.4,18.5,18.5,0,1,1,28.6-15.6Z"/><path id="lock-1" class="cls-1" d="M517.8,340.3H514a59.9,59.9,0,0,0-59.9,59.9v39H577.7v-39A59.9,59.9,0,0,0,517.8,340.3Zm43.4,82.4H470.6V400.2A43.5,43.5,0,0,1,514,356.8h3.8a43.5,43.5,0,0,1,43.4,43.4Z"/><path id="lock-shadow" class="cls-4" d="M682.7,304.5V440.6c0,97.6-101.7,188.2-165.9,223.6l-.9.2V241.5l.8.2c7.3,3.8,59,31.2,78.4,38.4s77.1,20.8,86.3,22.9A1.6,1.6,0,0,1,682.7,304.5Z"/></g></g><circle id="mask" class="cls-5" cx="354.9" cy="199.9" r="466.7"/></g></svg>