<svg xmlns="http://www.w3.org/2000/svg" viewBox="0 0 709.7 674.1"><defs><style>.cls-1{fill:#fff;}.cls-2,.cls-3{fill:#4169e1;}.cls-2{stroke:#13203f;stroke-miterlimit:10;stroke-width:16px;}.cls-4{fill:#172642;opacity:0.1;}.cls-5{fill:#151515;opacity:0.01;}</style></defs><g id="download-business-layer"><g id="download-business-layer-2-2" data-name="download-business-layer"><path id="download-business" class="cls-1" d="M435.8,23.5H268V76H25V664.4H684.7V175.1ZM268,642.4H48.3V98H268ZM411.9,198.3h81.3v98.9H411.9Zm-92.9,0h81.3v98.9H319Zm81.3,356.2H319V510.6h81.3Zm0-54.9H319v-44h81.3Zm154,120.8H461.4V455.6h92.9Zm84-187.5H314.5V411H638.3ZM201.2,487.8H166.3V411h34.9Zm0-201.6H166.3V209.3h34.9ZM154.7,487.8H119.8V411h34.9Zm0-201.6H119.8V209.3h34.9Z"/></g><g id="lock-group"><path id="lock-5" class="cls-2" d="M517.9,654.7c-66.4-40.1-158.4-126.4-158.4-215.2V308.6c25.4-5.9,63.6-15.3,80.6-21.5s55.5-25.3,77.8-36.6c22.3,11.3,59.8,30.1,77.8,36.6s55.2,15.6,80.6,21.5V439.5C676.3,528.3,584.2,614.6,517.9,654.7Z"/><rect id="lock-3" class="cls-1" x="431.4" y="422.8" width="173" height="142.14" rx="24.2"/><path id="lock-2" class="cls-3" d="M536.4,475.8a18.4,18.4,0,0,1-8.4,15.5,4.5,4.5,0,0,0-1.9,3.5v30.5a4.1,4.1,0,0,1-4.1,4.1h-8.2a4.1,4.1,0,0,1-4.1-4.1V494.8a3.9,3.9,0,0,0-1.9-3.4,18.5,18.5,0,1,1,28.6-15.6Z"/><path id="lock-1" class="cls-1" d="M519.8,340.3H516a59.9,59.9,0,0,0-59.9,59.9v39H579.7v-39A59.9,59.9,0,0,0,519.8,340.3Zm43.4,82.4H472.6V400.2A43.5,43.5,0,0,1,516,356.8h3.8a43.5,43.5,0,0,1,43.4,43.4Z"/><path id="lock-shadow" class="cls-4" d="M684.7,304.5V440.6c0,97.6-101.7,188.2-165.9,223.6l-.9.2V241.5l.8.2c7.3,3.8,59,31.2,78.4,38.4s77.1,20.8,86.3,22.9A1.6,1.6,0,0,1,684.7,304.5Z"/></g></g><g id="maskam"><circle id="mask" class="cls-5" cx="354.9" cy="199.9" r="466.7"/></g></svg>