<svg id="maskam" xmlns="http://www.w3.org/2000/svg" viewBox="0 0 214.7 202.5"><g id="essential-protection"><circle cx="107.2" cy="90.1" r="79.7" style="fill:#0a2a29"/><circle cx="107.2" cy="90.1" r="70.8" style="fill:#f2dfc0"/><circle cx="107.2" cy="90.1" r="61.9" style="fill:#538182"/><path d="M72.7,127.4a4.2,4.2,0,0,1-2-.5,4.4,4.4,0,0,1-1.2-1.5,4.6,4.6,0,0,1-.4-2.1h0a4.6,4.6,0,0,1,.4-2.1,4.4,4.4,0,0,1,1.2-1.5,4.1,4.1,0,0,1,1.9-.5l1.5.2a4.1,4.1,0,0,1,1.1.7v1.7h-.9v-1.3l-.4-.2H72.6a2,2,0,0,0-1.3.4,2.8,2.8,0,0,0-.8,1.1,4.7,4.7,0,0,0-.3,1.7h0a4.8,4.8,0,0,0,.3,1.8,2.2,2.2,0,0,0,.9,1,2.1,2.1,0,0,0,1.4.4h.7l.7-.2v-1.1h.8v1.7l-1.1.5Z" style="fill:#f2dfc0"/><path d="M78.3,127.3v-.7l.9-.2v-6.3l-.9-.2v-.7h6v2h-.9v-1.1h-3v2.6h3v.9h-3v2.9h3.1l.2-1.1h.8v1.9Z" style="fill:#f2dfc0"/><path d="M87.6,127.3v-.7l.9-.2v-6.3l-.9-.2v-.7h3.6a3.3,3.3,0,0,1,1.5.3,1.8,1.8,0,0,1,.9.8,2.1,2.1,0,0,1,.3,1.2,2.7,2.7,0,0,1-.3,1.2,2.2,2.2,0,0,1-.9.7,5,5,0,0,1-1.3.3H89.6v2.7l.9.2v.7Zm2-4.5h1.5a2.3,2.3,0,0,0,1.3-.3,1.3,1.3,0,0,0,.4-1,1.1,1.1,0,0,0-.4-1,1.6,1.6,0,0,0-1.2-.4H89.6Zm3.3,4.5-1.8-4h1.1l1.5,3.2h.6v.7Z" style="fill:#f2dfc0"/><path d="M98.9,127.3v-.7l.9-.2V120H97.9v1.2h-.9v-2h6.8v2h-.9V120h-1.9v6.4l1,.2v.7Z" style="fill:#f2dfc0"/><path d="M106.7,127.3v-.7l.9-.2v-6.3l-.9-.2v-.7h2.9v.7l-.9.2v6.3l.9.2v.7Z" style="fill:#f2dfc0"/><path d="M112.5,127.3v-.7l1-.2v-6.3l-1-.2v-.7h6.1v2h-.9v-1.1h-3.1v2.8h3v.8h-3v2.7l.9.2v.7Z" style="fill:#f2dfc0"/><path d="M121.6,127.3v-.7l.9-.2v-6.3l-.9-.2v-.7h2.9v.7l-.9.2v6.3l.9.2v.7Z" style="fill:#f2dfc0"/><path d="M127.4,127.3v-.7l.9-.2v-6.3l-.9-.2v-.7h6v2h-.9v-1.1h-3v2.6h3v.9h-3v2.9h3.2v-1.1h.9v1.9Z" style="fill:#f2dfc0"/><path d="M136.7,127.3v-.7l.9-.2v-6.3l-.9-.2v-.7h3.2a3.5,3.5,0,0,1,3.1,1.9,4.6,4.6,0,0,1,.4,2.1h0a4.6,4.6,0,0,1-.4,2.1,4.1,4.1,0,0,1-1.2,1.4,4.1,4.1,0,0,1-1.9.5Zm2-.9h1.2a2,2,0,0,0,1.3-.4,3.1,3.1,0,0,0,.8-1.1,4.1,4.1,0,0,0,.3-1.6h0a3.8,3.8,0,0,0-.3-1.6,3.1,3.1,0,0,0-.8-1.1,2,2,0,0,0-1.3-.4h-1.2Z" style="fill:#f2dfc0"/><polygon points="101 136.8 105.4 141.3 113.5 133.2 105.4 138.5 101 136.8" style="fill:#f2dfc0"/><polygon points="205.7 108 8.7 108 17.2 90.1 8.7 72.2 205.7 72.2 197.1 90.1 205.7 108" style="fill:#0a2a29"/><path d="M107.2,175.9v13.5a99.2,99.2,0,0,1-82.7-44.5,95.2,95.2,0,0,1-13.3-29.6l13-3.4a83.2,83.2,0,0,0,11.5,25.6A84.6,84.6,0,0,0,54.8,158a85.8,85.8,0,0,0,24.7,13.4A86.9,86.9,0,0,0,107.2,175.9Z" style="fill:none"/><path d="M105.4,187.6a5.6,5.6,0,0,0,1.8-4.6,6.2,6.2,0,0,0-2.3.2l-1.1.6-.6.4-.5.4a5.5,5.5,0,0,0-2,4.5,4.9,4.9,0,0,0,2.4-.1A7.9,7.9,0,0,0,105.4,187.6Z" style="fill:#0a2a29"/><path d="M105.6,177.7a6.1,6.1,0,0,1,1.6,4.6,4.7,4.7,0,0,1-2.3-.3l-1-.6-.6-.5-.4-.5a5.6,5.6,0,0,1-1.4-4.6,3.9,3.9,0,0,1,2.1.4A5.5,5.5,0,0,1,105.6,177.7Z" style="fill:#0a2a29"/><path d="M98,187.1l1-.9a7.5,7.5,0,0,0,.7-1.2,4.5,4.5,0,0,0,.4-2.3H99l-1.1.2a6.8,6.8,0,0,0-2.4,1.2l-.5.5-.5.5a4.1,4.1,0,0,0-.7,1.1,4.6,4.6,0,0,0-.6,2.2l1.2.2h1.2A5.6,5.6,0,0,0,98,187.1Z" style="fill:#0a2a29"/><path d="M99,177.3l.7,1.2a5.6,5.6,0,0,1,.4,1.2,4.5,4.5,0,0,1,.1,2.3H99.1l-1.1-.5a5.9,5.9,0,0,1-2-1.6l-.3-.6c-.2-.2-.2-.4-.3-.6a5.6,5.6,0,0,1-.4-1.2,4.8,4.8,0,0,1,.1-2.4h1l1,.5A5.6,5.6,0,0,1,99,177.3Z" style="fill:#0a2a29"/><path d="M90.7,186.2a5.8,5.8,0,0,0,2.5-4.3H92.1a2.5,2.5,0,0,0-1.2.1,5.3,5.3,0,0,0-2.5,1,6.5,6.5,0,0,0-1.8,1.9,3.7,3.7,0,0,0-.8,2.2l1.1.3h1.3A6,6,0,0,0,90.7,186.2Z" style="fill:#0a2a29"/><path d="M92.4,176.5a5.9,5.9,0,0,1,.9,4.7H92.2l-1.1-.5a6.2,6.2,0,0,1-1.8-1.8,6.3,6.3,0,0,1-.9-2.5,4.5,4.5,0,0,1,.3-2.3,2,2,0,0,1,1,.2l.9.4A6.6,6.6,0,0,1,92.4,176.5Z" style="fill:#0a2a29"/><path d="M83.5,184.7a5.5,5.5,0,0,0,2.7-4.1,4,4,0,0,0-2.2-.2,5.7,5.7,0,0,0-2.5.8,5.5,5.5,0,0,0-3,3.9,6.1,6.1,0,0,0,2.4.4,3.1,3.1,0,0,0,1.3-.3Z" style="fill:#0a2a29"/><path d="M85.9,175.1a6.3,6.3,0,0,1,.5,4.8,3.4,3.4,0,0,1-2.1-.8,4.2,4.2,0,0,1-1.7-2,5.1,5.1,0,0,1-.2-4.8,4.1,4.1,0,0,1,1.9.9,3,3,0,0,1,.8.8A4.4,4.4,0,0,1,85.9,175.1Z" style="fill:#0a2a29"/><path d="M76.4,182.6a5.5,5.5,0,0,0,3-3.8,4,4,0,0,0-2.2-.5l-1.3.2-1.3.5a5.6,5.6,0,0,0-3.2,3.6A5.2,5.2,0,0,0,76.4,182.6Z" style="fill:#0a2a29"/><path d="M79.5,173.2a5.6,5.6,0,0,1,.1,4.9,4.2,4.2,0,0,1-2-1,3.8,3.8,0,0,1-.9-.9,6.7,6.7,0,0,1-.6-1.2,5.7,5.7,0,0,1,.1-4.8A4.8,4.8,0,0,1,79.5,173.2Z" style="fill:#0a2a29"/><path d="M69.5,180a5.3,5.3,0,0,0,3.3-3.6,4,4,0,0,0-2.2-.6,6.3,6.3,0,0,0-2.6.5,5.2,5.2,0,0,0-3.5,3.4,5.2,5.2,0,0,0,2.3.7A6.6,6.6,0,0,0,69.5,180Z" style="fill:#0a2a29"/><path d="M73.3,170.9a6.3,6.3,0,0,1-.2,4.9,4.7,4.7,0,0,1-2-1.2,4.9,4.9,0,0,1-1.4-2.2,6.1,6.1,0,0,1,.5-4.8,3.6,3.6,0,0,1,1.8,1.2A5.4,5.4,0,0,1,73.3,170.9Z" style="fill:#0a2a29"/><path d="M62.8,176.9a5.7,5.7,0,0,0,3.6-3.3l-.5-.3-.5-.3-1.2-.2a7.8,7.8,0,0,0-2.6.2,6.2,6.2,0,0,0-3.8,3.2l1,.6,1.3.3A6.3,6.3,0,0,0,62.8,176.9Z" style="fill:#0a2a29"/><path d="M67.3,168.1a6.4,6.4,0,0,1-.6,4.8l-.5-.2-.5-.3-.9-.8a5.2,5.2,0,0,1-1.2-2.2,5.9,5.9,0,0,1,.9-4.8l.9.5.8.8A5.7,5.7,0,0,1,67.3,168.1Z" style="fill:#0a2a29"/><path d="M56.3,173.2a5.3,5.3,0,0,0,2.4-1.1,5.3,5.3,0,0,0,1.5-1.9l-1-.6-1.1-.3a6.1,6.1,0,0,0-2.7,0l-1.3.5a2.4,2.4,0,0,0-1.1.6,5.5,5.5,0,0,0-1.6,1.8l1,.6,1.2.5A6.2,6.2,0,0,0,56.3,173.2Z" style="fill:#0a2a29"/><path d="M61.5,164.8a5.7,5.7,0,0,1,0,2.6,5,5,0,0,1-1,2.2l-.9-.5-.8-.9a6.6,6.6,0,0,1-1.1-2.4,5.7,5.7,0,0,1,0-1.3,5.1,5.1,0,0,1,.2-1.3,5.3,5.3,0,0,1,1.1-2.1l.8.6.8.8A6.9,6.9,0,0,1,61.5,164.8Z" style="fill:#0a2a29"/><path d="M50.2,169.2a5.3,5.3,0,0,0,4-2.8,5.3,5.3,0,0,0-4.6-1.2,7,7,0,0,0-1.4.3,3.9,3.9,0,0,0-1.1.6,4.4,4.4,0,0,0-1.7,1.6l.9.7,1.2.6A7.8,7.8,0,0,0,50.2,169.2Z" style="fill:#0a2a29"/><path d="M56,161.2a5.6,5.6,0,0,1-1.4,4.6,4.7,4.7,0,0,1-2.4-3.9,3.3,3.3,0,0,1,0-1.4,2.4,2.4,0,0,1,.3-1.2,4.5,4.5,0,0,1,1.2-2,2.4,2.4,0,0,1,.8.6,2.2,2.2,0,0,1,.7.9A5.2,5.2,0,0,1,56,161.2Z" style="fill:#0a2a29"/><path d="M44.4,164.6a5.5,5.5,0,0,0,4.2-2.4,4.3,4.3,0,0,0-1.9-1.3,7.4,7.4,0,0,0-2.6-.3,6.6,6.6,0,0,0-2.6.7,4.5,4.5,0,0,0-1.8,1.5,2.4,2.4,0,0,0,.9.8l1.1.6A5.9,5.9,0,0,0,44.4,164.6Z" style="fill:#0a2a29"/><path d="M50.7,157.1a5.7,5.7,0,0,1-1.6,4.5,4.1,4.1,0,0,1-1.6-1.6,5.1,5.1,0,0,1-.6-2.5,5.5,5.5,0,0,1,.5-2.6,4.5,4.5,0,0,1,1.4-1.9l.8.7.6.9A6.6,6.6,0,0,1,50.7,157.1Z" style="fill:#0a2a29"/><path d="M38.9,159.6a5.4,5.4,0,0,0,4.4-2.1,3.5,3.5,0,0,0-1.8-1.3,5.5,5.5,0,0,0-2.6-.6,5.6,5.6,0,0,0-4.5,1.9,4.9,4.9,0,0,0,1.9,1.5A5.3,5.3,0,0,0,38.9,159.6Z" style="fill:#0a2a29"/><path d="M45.8,152.6a5.6,5.6,0,0,1-2,4.4,3.9,3.9,0,0,1-1.4-1.7,5.7,5.7,0,0,1-.4-2.6,5.4,5.4,0,0,1,2.2-4.3,4.3,4.3,0,0,1,1.2,1.7A6.6,6.6,0,0,1,45.8,152.6Z" style="fill:#0a2a29"/><path d="M33.8,154.2a5.4,5.4,0,0,0,4.6-1.7,5,5,0,0,0-1.7-1.5l-.6-.3-.6-.2-1.3-.3a6,6,0,0,0-4.7,1.6,6.9,6.9,0,0,0,1.7,1.7l1.2.5Z" style="fill:#0a2a29"/><path d="M41.3,147.7a5.7,5.7,0,0,1-2.4,4.3,3.7,3.7,0,0,1-1.2-1.9.8.8,0,0,1-.2-.5,1.7,1.7,0,0,1-.1-.7,2.9,2.9,0,0,1,0-1.3,5.4,5.4,0,0,1,2.5-4.1,3.4,3.4,0,0,1,1.2,1.8c.1.3.1.7.2,1.1Z" style="fill:#0a2a29"/><path d="M29.2,148.5a5.4,5.4,0,0,0,4.7-1.4,4.9,4.9,0,0,0-1.6-1.6,6.7,6.7,0,0,0-1.2-.6l-1.3-.4a6,6,0,0,0-4.8,1.2,5.5,5.5,0,0,0,1.6,1.8,3.4,3.4,0,0,0,1.2.6Z" style="fill:#0a2a29"/><path d="M37.1,142.6a6.4,6.4,0,0,1-2.7,4.1,4.3,4.3,0,0,1-1.1-2,5,5,0,0,1-.2-1.2,6.6,6.6,0,0,1,.1-1.4,6,6,0,0,1,2.9-3.9,3.9,3.9,0,0,1,1,1.9c0,.4.1.8.1,1.2A6.2,6.2,0,0,1,37.1,142.6Z" style="fill:#0a2a29"/><path d="M25,142.4a5.3,5.3,0,0,0,4.8-1,4.3,4.3,0,0,0-1.5-1.8,8.8,8.8,0,0,0-2.4-1.1,5.9,5.9,0,0,0-4.8.8,6.6,6.6,0,0,0,1.4,2A6.4,6.4,0,0,0,25,142.4Z" style="fill:#0a2a29"/><path d="M33.3,137.1a5.8,5.8,0,0,1-3,3.9,4.6,4.6,0,0,1-.9-2,4.6,4.6,0,0,1,.1-2.6,5.5,5.5,0,0,1,3.2-3.7,4.1,4.1,0,0,1,.8,1.9A7.2,7.2,0,0,1,33.3,137.1Z" style="fill:#0a2a29"/><path d="M21.3,136.1a5.6,5.6,0,0,0,4.8-.7l-.2-.5-.3-.5-.8-.9a7.3,7.3,0,0,0-2.3-1.3,5.5,5.5,0,0,0-4.9.5,4.7,4.7,0,0,0,.5,1l.3.5.5.5A5.7,5.7,0,0,0,21.3,136.1Z" style="fill:#0a2a29"/><path d="M30,131.4a6.2,6.2,0,0,1-3.3,3.6l-.3-.4-.2-.5a2.7,2.7,0,0,1-.3-1.2,5.4,5.4,0,0,1,.3-2.5,5.9,5.9,0,0,1,3.4-3.5,4.1,4.1,0,0,1,.5.9c0,.2.1.4.1.6a.9.9,0,0,1,.1.5A5.5,5.5,0,0,1,30,131.4Z" style="fill:#0a2a29"/><path d="M18,129.4a5.1,5.1,0,0,0,2.7.4,4.1,4.1,0,0,0,2.2-.7l-.5-1a6.1,6.1,0,0,0-.7-1,9.3,9.3,0,0,0-2.2-1.4l-1.3-.4H16.9a5.9,5.9,0,0,0-2.3.5,5.6,5.6,0,0,0,.4,1.2l.8,1A5.7,5.7,0,0,0,18,129.4Z" style="fill:#0a2a29"/><path d="M27,125.4a5.5,5.5,0,0,1-1.4,2.2,5,5,0,0,1-2.1,1.2,3,3,0,0,1-.4-1,5,5,0,0,1-.2-1.2,5.9,5.9,0,0,1,.5-2.5,4.1,4.1,0,0,1,.7-1.1l.9-1a6.1,6.1,0,0,1,2.1-1.1,3.8,3.8,0,0,1,.3,1,3.6,3.6,0,0,1,.2,1.1A5.3,5.3,0,0,1,27,125.4Z" style="fill:#0a2a29"/><path d="M17.9,121.2l.3.7.3.6.8,1a5.6,5.6,0,0,0,2,1.1,5.3,5.3,0,0,0,.8-2.2,4.9,4.9,0,0,0-.1-1.2,1.3,1.3,0,0,0-.1-.6,6.4,6.4,0,0,0-.2-.7,13.7,13.7,0,0,0-1.7-3l-2.3-3.3c-.1,1.2-.2,2.7-.2,4.1A12,12,0,0,0,17.9,121.2Z" style="fill:#0a2a29"/><path d="M107.2,175.9v13.5a99.6,99.6,0,0,0,96.1-74.1l-13-3.4a85.6,85.6,0,0,1-11.5,25.6A86.6,86.6,0,0,1,159.7,158a87.7,87.7,0,0,1-24.8,13.4A86.9,86.9,0,0,1,107.2,175.9Z" style="fill:none"/><path d="M109,187.6a5.5,5.5,0,0,1-1.7-4.6,5.5,5.5,0,0,1,2.2.2l1.2.6.5.4.6.4a5.8,5.8,0,0,1,2,4.5,4.9,4.9,0,0,1-2.4-.1A7.2,7.2,0,0,1,109,187.6Z" style="fill:#0a2a29"/><path d="M108.9,177.7a5.7,5.7,0,0,0-1.6,4.6,4.2,4.2,0,0,0,2.2-.3l1.1-.6.5-.5c.2-.1.3-.3.5-.5a5.5,5.5,0,0,0,1.3-4.6,4.1,4.1,0,0,0-2.1.4A5.3,5.3,0,0,0,108.9,177.7Z" style="fill:#0a2a29"/><path d="M116.4,187.1l-1-.9a6.7,6.7,0,0,1-.6-1.2,4.6,4.6,0,0,1-.5-2.3h1.1l1.2.2a5.7,5.7,0,0,1,2.3,1.2l.6.5.4.5a4.4,4.4,0,0,1,.8,1.1,4.6,4.6,0,0,1,.6,2.2l-1.2.2h-1.3A7.1,7.1,0,0,1,116.4,187.1Z" style="fill:#0a2a29"/><path d="M115.5,177.3a7.5,7.5,0,0,0-.7,1.2,6.1,6.1,0,0,0-.5,1.2,6,6,0,0,0-.1,2.3h1.2l1.1-.5a4.8,4.8,0,0,0,1.9-1.6l.4-.6.3-.6a5.6,5.6,0,0,0,.4-1.2,6.3,6.3,0,0,0-.1-2.4h-1l-1,.5A4.8,4.8,0,0,0,115.5,177.3Z" style="fill:#0a2a29"/><path d="M123.7,186.2a5.4,5.4,0,0,1-2.4-4.3h1.1a2.5,2.5,0,0,1,1.2.1,5,5,0,0,1,2.4,1,6.9,6.9,0,0,1,1.9,1.9,5.8,5.8,0,0,1,.8,2.2l-1.2.3h-1.2A6.4,6.4,0,0,1,123.7,186.2Z" style="fill:#0a2a29"/><path d="M122.1,176.5a5.9,5.9,0,0,0-.9,4.7h1.1l1.1-.5a6.2,6.2,0,0,0,1.8-1.8,4.9,4.9,0,0,0,.8-2.5,4.4,4.4,0,0,0-.2-2.3,1.8,1.8,0,0,0-1,.2l-1,.4A7.9,7.9,0,0,0,122.1,176.5Z" style="fill:#0a2a29"/><path d="M131,184.7a5.4,5.4,0,0,1-2.8-4.1,4.4,4.4,0,0,1,2.3-.2,6.1,6.1,0,0,1,2.5.8,6,6,0,0,1,3,3.9,6.4,6.4,0,0,1-2.4.4,2.8,2.8,0,0,1-1.3-.3Z" style="fill:#0a2a29"/><path d="M128.6,175.1a5.5,5.5,0,0,0-.5,4.8,3.7,3.7,0,0,0,2.1-.8,4.7,4.7,0,0,0,1.6-2,5.5,5.5,0,0,0,.3-4.8,3.7,3.7,0,0,0-1.9.9l-.9.8A4.1,4.1,0,0,0,128.6,175.1Z" style="fill:#0a2a29"/><path d="M138.1,182.6a5.7,5.7,0,0,1-3.1-3.8,4.3,4.3,0,0,1,2.3-.5l1.2.2,1.3.5a6.1,6.1,0,0,1,3.3,3.6A5.2,5.2,0,0,1,138.1,182.6Z" style="fill:#0a2a29"/><path d="M134.9,173.2a6.4,6.4,0,0,0-.1,4.9,4.2,4.2,0,0,0,2-1,2.6,2.6,0,0,0,.9-.9,3.5,3.5,0,0,0,.7-1.2,5.3,5.3,0,0,0-.2-4.8A5,5,0,0,0,134.9,173.2Z" style="fill:#0a2a29"/><path d="M145,180a5.1,5.1,0,0,1-3.3-3.6,3.7,3.7,0,0,1,2.1-.6,5.8,5.8,0,0,1,2.6.5,5.6,5.6,0,0,1,3.6,3.4,6.2,6.2,0,0,1-2.3.7A6.3,6.3,0,0,1,145,180Z" style="fill:#0a2a29"/><path d="M141.2,170.9a5.6,5.6,0,0,0,.2,4.9,3.9,3.9,0,0,0,1.9-1.2,4.9,4.9,0,0,0,1.4-2.2,5.7,5.7,0,0,0-.5-4.8,4.7,4.7,0,0,0-1.8,1.2A5.3,5.3,0,0,0,141.2,170.9Z" style="fill:#0a2a29"/><path d="M151.7,176.9a5.2,5.2,0,0,1-3.6-3.3l.5-.3.5-.3,1.1-.2a8.6,8.6,0,0,1,2.7.2,5.7,5.7,0,0,1,3.7,3.2l-1,.6-1.2.3A6.2,6.2,0,0,1,151.7,176.9Z" style="fill:#0a2a29"/><path d="M147.2,168.1a5.6,5.6,0,0,0,.6,4.8l.5-.2.5-.3a3,3,0,0,0,.8-.8,4.3,4.3,0,0,0,1.2-2.2,5.5,5.5,0,0,0-.8-4.8l-.9.5a3,3,0,0,0-.8.8A4.6,4.6,0,0,0,147.2,168.1Z" style="fill:#0a2a29"/><path d="M158.1,173.2a6.6,6.6,0,0,1-2.4-1.1,6.2,6.2,0,0,1-1.4-1.9l.9-.6,1.2-.3a5.7,5.7,0,0,1,2.6,0l1.3.5,1.2.6a5.2,5.2,0,0,1,1.5,1.8l-1,.6a3.3,3.3,0,0,1-1.2.5A6.3,6.3,0,0,1,158.1,173.2Z" style="fill:#0a2a29"/><path d="M153,164.8a5.7,5.7,0,0,0,0,2.6,4.9,4.9,0,0,0,.9,2.2,3.1,3.1,0,0,0,1-.5l.8-.9a6.4,6.4,0,0,0,1-2.4,5.7,5.7,0,0,0,.1-1.3,5.1,5.1,0,0,0-.2-1.3,5.3,5.3,0,0,0-1.1-2.1l-.9.6-.7.8A5.3,5.3,0,0,0,153,164.8Z" style="fill:#0a2a29"/><path d="M164.3,169.2a5.7,5.7,0,0,1-4.1-2.8,5.5,5.5,0,0,1,4.6-1.2,5.8,5.8,0,0,1,1.4.3l1.2.6a4.4,4.4,0,0,1,1.7,1.6l-1,.7a3.9,3.9,0,0,1-1.1.6A8.2,8.2,0,0,1,164.3,169.2Z" style="fill:#0a2a29"/><path d="M158.5,161.2a5.9,5.9,0,0,0,1.3,4.6,4.8,4.8,0,0,0,2.5-3.9v-1.4l-.3-1.2a4.6,4.6,0,0,0-1.3-2c-.3.1-.5.4-.8.6a3.5,3.5,0,0,0-.7.9A6.8,6.8,0,0,0,158.5,161.2Z" style="fill:#0a2a29"/><path d="M170.1,164.6a5.7,5.7,0,0,1-4.3-2.4,4.6,4.6,0,0,1,2-1.3,6.9,6.9,0,0,1,2.6-.3,7.7,7.7,0,0,1,2.6.7,6.5,6.5,0,0,1,1.8,1.5l-.9.8-1.1.6A5.9,5.9,0,0,1,170.1,164.6Z" style="fill:#0a2a29"/><path d="M163.7,157.1a5.7,5.7,0,0,0,1.7,4.5,3.9,3.9,0,0,0,1.5-1.6,6.6,6.6,0,0,0,.7-2.5,7.1,7.1,0,0,0-.5-2.6,7.2,7.2,0,0,0-1.4-1.9,2.7,2.7,0,0,0-.8.7l-.6.9A9.2,9.2,0,0,0,163.7,157.1Z" style="fill:#0a2a29"/><path d="M175.5,159.6a5.5,5.5,0,0,1-4.4-2.1,4.3,4.3,0,0,1,1.9-1.3,5.1,5.1,0,0,1,2.5-.6,5.9,5.9,0,0,1,4.6,1.9,5.8,5.8,0,0,1-1.9,1.5A6,6,0,0,1,175.5,159.6Z" style="fill:#0a2a29"/><path d="M168.6,152.6a6.3,6.3,0,0,0,2,4.4,5,5,0,0,0,1.5-1.7,7.5,7.5,0,0,0,.4-2.6,5.7,5.7,0,0,0-2.2-4.3,3.7,3.7,0,0,0-1.3,1.7A6.6,6.6,0,0,0,168.6,152.6Z" style="fill:#0a2a29"/><path d="M180.6,154.2a5.5,5.5,0,0,1-4.6-1.7,4.5,4.5,0,0,1,1.8-1.5l.5-.3.6-.2,1.4-.3a6.1,6.1,0,0,1,4.7,1.6,5.9,5.9,0,0,1-1.8,1.7l-1.2.5Z" style="fill:#0a2a29"/><path d="M173.2,147.7a5.9,5.9,0,0,0,2.3,4.3,3.8,3.8,0,0,0,1.3-1.9c.1-.1.1-.3.2-.5s.1-.5.1-.7a5.7,5.7,0,0,0-.1-1.3,5.2,5.2,0,0,0-2.5-4.1,3.3,3.3,0,0,0-1.1,1.8,3.6,3.6,0,0,0-.2,1.1A2.8,2.8,0,0,0,173.2,147.7Z" style="fill:#0a2a29"/><path d="M185.3,148.5a5.3,5.3,0,0,1-4.7-1.4,4.1,4.1,0,0,1,1.6-1.6,3.9,3.9,0,0,1,1.1-.6l1.3-.4a5.9,5.9,0,0,1,4.8,1.2,4.6,4.6,0,0,1-1.6,1.8,2.3,2.3,0,0,1-1.2.6Z" style="fill:#0a2a29"/><path d="M177.4,142.6a5.9,5.9,0,0,0,2.6,4.1,4.3,4.3,0,0,0,1.1-2,2.5,2.5,0,0,0,.2-1.2,6.6,6.6,0,0,0-.1-1.4,5.7,5.7,0,0,0-2.9-3.9,4.8,4.8,0,0,0-.9,1.9c-.1.4-.1.8-.2,1.2A6.9,6.9,0,0,0,177.4,142.6Z" style="fill:#0a2a29"/><path d="M189.5,142.4a5.2,5.2,0,0,1-4.8-1,4.3,4.3,0,0,1,1.5-1.8,7,7,0,0,1,2.3-1.1,6.1,6.1,0,0,1,4.9.8,5.5,5.5,0,0,1-1.5,2A6.6,6.6,0,0,1,189.5,142.4Z" style="fill:#0a2a29"/><path d="M181.1,137.1a6.1,6.1,0,0,0,3,3.9,4.7,4.7,0,0,0,1-2,5.9,5.9,0,0,0-.2-2.6,5.4,5.4,0,0,0-3.1-3.7,4.1,4.1,0,0,0-.8,1.9A7.1,7.1,0,0,0,181.1,137.1Z" style="fill:#0a2a29"/><path d="M193.2,136.1a5.5,5.5,0,0,1-4.8-.7.8.8,0,0,1,.2-.5l.3-.5.8-.9a7.3,7.3,0,0,1,2.3-1.3,5.5,5.5,0,0,1,4.9.5,4.7,4.7,0,0,1-.5,1l-.4.5-.4.5A7.2,7.2,0,0,1,193.2,136.1Z" style="fill:#0a2a29"/><path d="M184.5,131.4a5.8,5.8,0,0,0,3.2,3.6l.3-.4.3-.5a5,5,0,0,0,.2-1.2,4.3,4.3,0,0,0-.3-2.5,5.6,5.6,0,0,0-3.4-3.5,3.6,3.6,0,0,0-.4.9c-.1.2-.1.4-.2.6a.9.9,0,0,1-.1.5A7.7,7.7,0,0,0,184.5,131.4Z" style="fill:#0a2a29"/><path d="M196.4,129.4a4.8,4.8,0,0,1-2.6.4,4.1,4.1,0,0,1-2.2-.7,4.2,4.2,0,0,1,.4-1l.7-1a11.8,11.8,0,0,1,2.2-1.4l1.4-.4h1.3a5.1,5.1,0,0,1,2.2.5,2.8,2.8,0,0,1-.4,1.2,5.2,5.2,0,0,1-3,2.5Z" style="fill:#0a2a29"/><path d="M187.4,125.4a7.1,7.1,0,0,0,1.5,2.2,4.7,4.7,0,0,0,2,1.2,3.1,3.1,0,0,0,.5-1,5,5,0,0,0,.2-1.2,7.9,7.9,0,0,0-.5-2.5l-.7-1.1-.9-1a7.1,7.1,0,0,0-2.1-1.1,4.2,4.2,0,0,0-.4,1,3.7,3.7,0,0,0-.1,1.1A5.2,5.2,0,0,0,187.4,125.4Z" style="fill:#0a2a29"/><path d="M196.5,121.2a1.4,1.4,0,0,1-.2.7l-.4.6-.8,1a5.6,5.6,0,0,1-2,1.1,5.2,5.2,0,0,1-.7-2.2v-1.2a1.3,1.3,0,0,0,.1-.6,2.5,2.5,0,0,0,.2-.7,19.6,19.6,0,0,1,1.7-3c.8-1.1,1.6-2.3,2.4-3.3,0,1.2.1,2.7.2,4.1A16.3,16.3,0,0,1,196.5,121.2Z" style="fill:#0a2a29"/><circle cx="107.2" cy="182.6" r="9.6" style="fill:#0a2a29"/><circle cx="107.2" cy="182.6" r="5.8" style="fill:#538182"/><path d="M90.6,49.9V48.8h.8V47.4l-2.2-3.8h-.7V42.4h3.2v1.1h-.5l1,2,.2.3h0v-.3l1.2-2h-.8V42.4h3.2v1.1h-.8l-2.1,3.7v1.4H94v1.1Z" style="fill:#f2dfc0"/><path d="M102.4,50a3.7,3.7,0,0,1-1.5-.3l-1.1-.8a4.7,4.7,0,0,1-.7-1.2,4,4,0,0,1-.3-1.5h0a4,4,0,0,1,.3-1.5,3.5,3.5,0,0,1,.7-1.2l1.1-.8a3.7,3.7,0,0,1,1.5-.3,3.5,3.5,0,0,1,1.4.3l1.1.8a2.4,2.4,0,0,1,.7,1.2,4,4,0,0,1,.3,1.5h0a4,4,0,0,1-.3,1.5,2.9,2.9,0,0,1-.7,1.2l-1.1.8A3.5,3.5,0,0,1,102.4,50Zm0-1.4a1.4,1.4,0,0,0,.9-.3,1.6,1.6,0,0,0,.6-.8,2.7,2.7,0,0,0,.2-1.3h0a2.7,2.7,0,0,0-.2-1.3,1.6,1.6,0,0,0-.6-.8,1.4,1.4,0,0,0-.9-.3,1.5,1.5,0,0,0-1,.3,1.6,1.6,0,0,0-.6.8,5.1,5.1,0,0,0-.2,1.3h0a5.1,5.1,0,0,0,.2,1.3,1.6,1.6,0,0,0,.6.8A1.5,1.5,0,0,0,102.4,48.6Z" style="fill:#f2dfc0"/><path d="M112.5,50a4.7,4.7,0,0,1-1.7-.3,2.9,2.9,0,0,1-1-.9,2.4,2.4,0,0,1-.4-1.5V43.6h-.8V42.4h3.3v1.1h-.7v3.7a1.5,1.5,0,0,0,.1.7,1.2,1.2,0,0,0,.5.5h1.5a1,1,0,0,0,.4-.5,1.4,1.4,0,0,0,.2-.7V43.6h-.8V42.4h3.3v1.1h-.7v3.7a2.9,2.9,0,0,1-.4,1.4,5.2,5.2,0,0,1-1.1,1A4.7,4.7,0,0,1,112.5,50Z" style="fill:#f2dfc0"/><path d="M119,49.9V48.8h.8V43.6H119V42.4h3.7a3.3,3.3,0,0,1,1.5.3,2.7,2.7,0,0,1,1,.8,2.8,2.8,0,0,1,.4,1.2,2.1,2.1,0,0,1-.4,1.2,2.2,2.2,0,0,1-1,.9,2.1,2.1,0,0,1-1.4.4h-1.2v1.5h.8v1.1Zm2.6-4.1h1.1l.8-.2a.9.9,0,0,0,.3-.7,1,1,0,0,0-.3-.8,1.1,1.1,0,0,0-.8-.3h-1.1Zm2.1,4.1-1-2.9,1.6-.6.9,2.2.7.2v1.1Z" style="fill:#f2dfc0"/><path d="M84.1,63.7v-1l.7-.2v-5h-.7V56.3h3.3a4.2,4.2,0,0,1,2.2.5,1.9,1.9,0,0,1,.8,1.6,2.9,2.9,0,0,1-.2.9,1.6,1.6,0,0,1-.8.6l.7.4a1,1,0,0,1,.4.5,1.9,1.9,0,0,1,.2.7,2,2,0,0,1-.8,1.7,3.3,3.3,0,0,1-2.1.5Zm2.5-4.3h.8l.9-.2a.6.6,0,0,0,.3-.6.8.8,0,0,0-.3-.7l-.9-.2h-.8Zm0,3h1.2a1.5,1.5,0,0,0,.8-.2.9.9,0,0,0,.3-.7,4.3,4.3,0,0,0-.1-.5l-.3-.3H86.6Z" style="fill:#f2dfc0"/><path d="M93.3,63.7v-1l.8-.2v-5h-.8V56.3h3.6a4.1,4.1,0,0,1,1.6.3,2.5,2.5,0,0,1,1,.8,2.1,2.1,0,0,1,.3,1.2,2.4,2.4,0,0,1-.3,1.2,2.8,2.8,0,0,1-1,.9,2.3,2.3,0,0,1-1.4.4H95.8v1.5l.8.2v1Zm2.5-4H97a1.1,1.1,0,0,0,.8-.3,1.2,1.2,0,0,0,.2-.7,1.4,1.4,0,0,0-.2-.7,1.2,1.2,0,0,0-.9-.3H95.8Zm2.2,4-1-2.9,1.5-.5.9,2.2.8.2v1Z" style="fill:#f2dfc0"/><path d="M102.8,63.7v-1h.5l2.2-6.3h1.9l2.2,6.3h.6v1h-2.8v-1h.5l-.3-.8h-2.3l-.3.8h.5v1Zm2.8-3.2h1.7l-.8-2.2V58h-.1v.3Z" style="fill:#f2dfc0"/><path d="M112.8,63.7v-1l.7-.2v-5h-.7V56.3h2.6l2.9,4.8h.1V57.5h-1V56.3h3.3v1.1H120v6.2h-1.8l-3-4.6h-.1v3.4l1,.2v1Z" style="fill:#f2dfc0"/><path d="M123.3,63.7v-1l.8-.2V57.6l-.8-.2V56.3h3.5a4.1,4.1,0,0,1,1.8.5,3,3,0,0,1,1.2,1.3,3.8,3.8,0,0,1,.4,1.9h0a4.1,4.1,0,0,1-.4,1.9,3.7,3.7,0,0,1-1.2,1.3,3.9,3.9,0,0,1-1.8.4Zm2.6-1.3h.8a1.2,1.2,0,0,0,.9-.3,1.6,1.6,0,0,0,.6-.8,5,5,0,0,0,.2-1.2h0a3.7,3.7,0,0,0-.2-1.2,1.2,1.2,0,0,0-.6-.8,1.2,1.2,0,0,0-.9-.3h-.8Z" style="fill:#f2dfc0"/><path d="M29,96.5V94.3l1.6-.3V83.5L29,83.1V80.9H41.5v4.5H38.6V83.8H34.4V87h5v2.9h-5v3.7h4.3V91.9h2.9v4.6Z" style="fill:#f2dfc0"/><path d="M47,96.5V94.3l1.6-.3V83.5L47,83.1V80.9h5.4l6.3,10h.1V83.5l-2.1-.4V80.9h7v2.2l-1.6.4v13H58.4L52,86.7h0V94l2,.3v2.2Z" style="fill:#f2dfc0"/><path d="M71.7,96.5V94.3l1.7-.3V83.8H70.9v1.7H68V80.9H82.5v4.6H79.7V83.8H77.1V94l1.7.3v2.2Z" style="fill:#f2dfc0"/><path d="M87.1,96.5V94.3l1.6-.3V83.5l-1.6-.4V80.9h7.6a8.1,8.1,0,0,1,3.3.6,4.4,4.4,0,0,1,2.1,1.7,4.1,4.1,0,0,1,.7,2.5,4.6,4.6,0,0,1-.7,2.6A5.5,5.5,0,0,1,98,90.2a5.4,5.4,0,0,1-2.9.7H92.4V94l1.7.3v2.2ZM92.4,88h2.4a2.9,2.9,0,0,0,1.7-.5,2,2,0,0,0,.6-1.5,2.1,2.1,0,0,0-.6-1.6,2.4,2.4,0,0,0-1.8-.6H92.4ZM97,96.5l-2.1-6.1,3.2-1.1L100,94l1.5.4v2.1Z" style="fill:#f2dfc0"/><path d="M109.5,96.5V94.3l1.6-.3V91.4l-4.5-8.1-1.6-.2V80.9h6.7v2.2l-.9.2,2.1,4.3.3.5h.1l.2-.5,2.5-4.3-1.6-.2V80.9h6.7v2.2l-1.7.2-4.5,7.8V94l1.6.3v2.2Z" style="fill:#f2dfc0"/><path d="M135,96.5V94.3l1.6-.3V83.5l-1.6-.4V80.9h7.4v2.2l-2,.4V93.7h3.7V91.5h2.9v5Z" style="fill:#f2dfc0"/><path d="M155,96.5l-4.9-13.2-1.5-.2V80.9h7v2.2l-1.3.2,2.8,8.8v.6h.1v-.6l2.7-8.8-1.6-.2V80.9H165v2.2l-1.5.2-4.4,13.2Z" style="fill:#f2dfc0"/><path d="M169.5,96.5V94.3l1.7-.3V83.5l-1.7-.4V80.9h7.4v2.2l-2,.4V93.7h3.7V91.5h2.9v5Z" style="fill:#f2dfc0"/></g><rect id="mask" x="-0.3" y="0.3" width="215" height="202" style="fill:#fff;opacity:0.01"/></svg>