<svg xmlns="http://www.w3.org/2000/svg" xmlns:xlink="http://www.w3.org/1999/xlink" viewBox="0 0 24 24"><g id="facebook-layer"><g id="facebook-group"><path id="path-2" d="M12,23A11,11,0,1,1,23,12,11,11,0,0,1,12,23Z" style="fill:#3d5b9a"/><path id="path-1" d="M10.3,12.1v6.3c0,.1,0,.2.1.2h2.4a.2.2,0,0,0,.2-.2V11.9h1.9v-2c0-.1,0-.1-.1-.1H13V8.3a.6.6,0,0,1,.6-.6h1.3a.2.2,0,0,0,.2-.2V5.6l-.2-.2H12.7a2.4,2.4,0,0,0-2.4,2.4V9.7H9.1c-.1,0-.2,0-.2.1v2h1.4Z" style="fill:#fff;fill-rule:evenodd"/></g></g><g id="maskam"><a xlink:href="https://www.facebook.com" target="_blank"><rect id="mask" width="24" height="24" style="fill:#fff;opacity:0.01"/></a></g></svg>