<svg xmlns="http://www.w3.org/2000/svg" viewBox="0 0 215 215"><defs><style>
.cls-1{fill:#fff;}.cls-2,.cls-3{fill:#4169e1;}.cls-2{stroke:#13203f;stroke-miterlimit:10;stroke-width:16px;}.cls-4{fill:#172642;opacity:0.1;}.cls-5{fill:#151515;opacity:0.01;}

#move {
  animation: speed-arrow 0.75s linear;
  transform-origin: bottom;
  transform-box: fill-box;
  animation-fill-mode: forwards;
}
@keyframes speed-arrow {
  0% {
    transform: rotateZ(0deg) translateY(0px) translateX(0px);
  }
  50% {
    transform: rotateZ(40deg) translateY(-10px) translateX(-10px);
  }
  75% {
    transform: rotateZ(20deg) translateY(-5px) translateX(-5px);

  }
  100% {
    transform: rotateZ(50deg) translateY(-12.5px) translateX(-12.5px);
  }
}
</style></defs><g id="speed-layer"><circle cx="107.5" cy="107.5" r="104.7" style="fill:#d4d4d4;opacity:0.3"/><path d="M179,147.3a74.8,74.8,0,0,0,9.6-36.6c0-42.8-36.3-77.4-81.1-77.4S26.4,67.9,26.4,110.7A74.8,74.8,0,0,0,36,147.3" style="fill:none;stroke:#000;stroke-linecap:square;stroke-linejoin:bevel;stroke-width:5px"/><line x1="66.4" y1="177.6" x2="148.6" y2="177.6" style="fill:none;stroke:#000;stroke-linecap:square;stroke-linejoin:bevel;stroke-width:5px"/><path id="move" d="M108.8,133.7,49,47.1l-3.5,2.1,48.6,91.7a11.9,11.9,0,0,0,.3,11.7c3.5,5.6,11.3,7.1,17.4,3.3s8.2-11.4,4.7-17A11.3,11.3,0,0,0,108.8,133.7Z" style="fill:#fff"/></g><g id="maskam"><rect id="mask" width="215" height="215" style="fill:#414042;opacity:0.01"/></g></svg>