<svg id="windows-layer" xmlns="http://www.w3.org/2000/svg" viewBox="0 0 148.7 142.8"><g id="linux-group"><path d="M44.2,95c-3.1-2.9-1.6-8.2-1.6-8.2s6-17.2,9.1-20.3,4-10,4-10,1-4,3-4,5,5,12,5c9,0,13.7-8,16-8,4,0,5.5,11,7,16,.9,2.6,9.3,6.4,7,24.5a34.1,34.1,0,0,1-.9,4.8h0l17.9-.4,1.8-1.5C131.6,83,98.8,51.1,96.9,47.6s.7-13.8-3.5-21.4c-2.2-3.8-5.6-11-21.6-9.6s-17.1,7.8-17.5,10c-2.5,12.1.9,26.8.9,26.8A234.9,234.9,0,0,0,37.4,73.2c-6.4,7.9-9,16.7-6.2,20.8h3M59.7,30.5c3-.4,8,0,8,6,0,4.2-3,3.6-6,4s-5,4-5.6-3C55.8,33.2,56.7,30.8,59.7,30.5ZM74,54.8c-1.9.3-6.7.7-9.1-.1s-8.2-4.6-8.2-8,10.2-4.4,14.1-4.5,15.1,1,15.1,4.9S76.7,54.5,74,54.8Zm4.7-14.3c-4,0-7.2.7-7.2-3.5a7.4,7.4,0,0,1,7.3-7.5c4.1,0,7,3.4,7.4,7.5C86.7,43.5,82.8,40.5,78.7,40.5Z" style="fill:#424242;stroke:#424242"/><path d="M61.2,118.5V121c2.8,1.3,28.1.3,26,0v-5l2.1-6.3h0a35.8,35.8,0,0,1-19,5.9s-7.9,0-9.4-1.8" style="fill:#424242;stroke:#424242"/><path d="M93.1,126.1c9.5,2.5,34.4-11.5,36.2-16.6.8-2.5-5.1-2.6-6.8-5.5s1.1-8.7-3.9-9.6c-3.5-.7-10.2.3-14.3,1s-5.9-2.3-9.9-2.3c0,0-4.4-1-3.7,12.2C90.7,105.3,81.8,123.1,93.1,126.1Z" style="fill:none;stroke:#424242;stroke-width:2px"/><path d="M86.7,47.5l-31-1C60.8,48.2,83.6,47.8,86.7,47.5Z" style="fill:#424242"/><path d="M55.6,126.1c-9.5,2.5-34.4-11.5-36.2-16.6-.8-2.5,5.2-2.6,6.8-5.5s-1.1-8.7,3.9-9.6,10.2.3,14.3,1,6-2.3,10-2.3c0,0,4.3-1,3.6,12.2C58,105.3,66.9,123.1,55.6,126.1Z" style="fill:none;stroke:#424242;stroke-width:2px"/><ellipse cx="79.3" cy="36.6" rx="3" ry="2.4" style="fill:#424242"/><ellipse cx="62.2" cy="36.3" rx="3" ry="2.4" style="fill:#424242"/></g></svg>