<svg id="android-layer" xmlns="http://www.w3.org/2000/svg" viewBox="0 0 148.7 142.8"><g id="android-group"><path d="M112,90.7V70.3H36.7V90.7c0,19.7,16.8,35.7,37.6,35.7S112,110.4,112,90.7Z" style="fill:#424242"/><path id="_Path_" data-name="&lt;Path&gt;" d="M96.5,31.3l11.3-10.7-4.4-4.2L91,28.2a38.4,38.4,0,0,0-33.3,0L45.3,16.4l-4.4,4.2L52.2,31.3A34.9,34.9,0,0,0,36.7,60.1v5.1H112V60.1C112,48.2,105.8,37.8,96.5,31.3ZM58.2,55a5.1,5.1,0,1,1,0-10.2,5.1,5.1,0,1,1,0,10.2Zm32.3,0a5.1,5.1,0,1,1,5.3-5.1A5.3,5.3,0,0,1,90.5,55Z" style="fill:#424242"/><path d="M122.9,49.5a6.4,6.4,0,0,0-6.4,6.4V84.8a6.5,6.5,0,0,0,12.9,0V55.9A6.4,6.4,0,0,0,122.9,49.5Z" style="fill:#424242"/><path d="M25.8,50.3a6.4,6.4,0,0,0-6.4,6.4v29a6.4,6.4,0,0,0,6.4,6.4,6.4,6.4,0,0,0,6.4-6.4v-29A6.4,6.4,0,0,0,25.8,50.3Z" style="fill:#424242"/></g></svg>