<svg xmlns="http://www.w3.org/2000/svg" xmlns:xlink="http://www.w3.org/1999/xlink" viewBox="0 0 24 24"><defs><linearGradient id="Degradado_sin_nombre_2" x1="3.11" y1="19.57" x2="30.4" y2="-3.67" gradientUnits="userSpaceOnUse"><stop offset="0" stop-color="#fae08a"/><stop offset="0.21" stop-color="#fcbb46"/><stop offset="0.38" stop-color="#f05475"/><stop offset="0.52" stop-color="#d53792"/><stop offset="0.74" stop-color="#7e50a0"/><stop offset="1" stop-color="#5c5da9"/></linearGradient></defs><g id="whatsapp-layer"><circle cx="12" cy="12" r="11" style="fill:#fff"/><path id="insta-path-1" d="M12,23A11,11,0,1,1,23,12,11,11,0,0,1,12,23ZM15.7,7.5a.9.9,0,0,0-.8.9.9.9,0,0,0,.8.8.8.8,0,0,0,.8-.8A.8.8,0,0,0,15.7,7.5ZM12.1,8.6A3.4,3.4,0,1,0,15.5,12,3.4,3.4,0,0,0,12.1,8.6Zm0,5.6A2.2,2.2,0,1,1,14.3,12,2.2,2.2,0,0,1,12.1,14.2Zm6.9-5A4.2,4.2,0,0,0,14.8,5H9.3A4.2,4.2,0,0,0,5.1,9.2v5.5a4.1,4.1,0,0,0,4.2,4.1h5.5A4.1,4.1,0,0,0,19,14.7Zm-1.3,5.5a2.9,2.9,0,0,1-2.9,2.8H9.3a2.8,2.8,0,0,1-2.8-2.8V9.2A2.8,2.8,0,0,1,9.3,6.3h5.5a2.9,2.9,0,0,1,2.9,2.9Z" style="fill:url(#Degradado_sin_nombre_2)"/></g><g id="maskam"><a xlink:href="https://www.instagram.com" target="_blank"><rect id="mask" width="24" height="24" style="fill:#fff;opacity:0.01"/></a></g></svg>