<svg id="Layer_2" data-name="Layer 2" xmlns="http://www.w3.org/2000/svg" viewBox="0 0 441.1 406"><defs><style>.cls-1{fill:#d8d8d8;}</style></defs><path class="cls-1" d="M220.6,91.2V403.3C400,329.6,402.2,174.8,402.2,174.8Z"/><path class="cls-1" d="M220.6,403.3V91.2L38.9,174.8S41.1,329.6,220.6,403.3Z"/><path class="cls-1" d="M220.6,2.7,185.9,18.1V50.9l-37,17v-33H148l-33.7,15V83.8l-36.8,17V66.2L45,80.7v35l-17.4,8s.2,13.2,4.8,33.9L220.6,71V2.7Z"/><path class="cls-1" d="M396.1,115.7v-35L363.6,66.2v34.6l-36.8-17V49.9l-33.7-15h-.9v33l-37-17V18.1L220.6,2.7V71h0l188.1,86.6c4.6-20.7,4.8-33.9,4.8-33.9Z"/></svg>