
<svg xmlns="http://www.w3.org/2000/svg" viewBox="0 0 661 641"><defs><style>.cls-1{fill:#fff;}.cls-2{fill:#151515;opacity:0.01;}.cls-4{fill:url(#down-up);}.cls-5{fill:url(#up-down);}</style></defs><g id="partnerships_layer"><g id="partnerships_group"><defs><linearGradient id="down-up" gradientTransform="rotate(90)"> <stop offset="0" stop-color="#FFFFFF"><animate attributeName="offset" dur="0.1s" values="1;0" begin="mask.mouseover" fill="freeze"/></stop><stop offset="0" stop-color="#b8eeb7"><animate attributeName="offset" dur="0.1s" values="1;0" begin="mask.mouseover" fill="freeze"/></stop></linearGradient><linearGradient id="up-down" gradientTransform="rotate(90)"><stop offset="0" stop-color="#FFFFFF"><animate attributeName="offset" dur="0.1s" values="0;1" begin="mask.mouseout" fill="freeze"/></stop><stop offset="0" stop-color="#b8eeb7"><animate attributeName="offset" dur="0.1s" values="0;1" begin="mask.mouseout" fill="freeze"/></stop></linearGradient></defs><path id="partnerships_path" class="cls-1" d="M488.5,334.6H434.6V316.9H401.9V304.6a34.5,34.5,0,0,0-34.5-34.5H294.1a34.6,34.6,0,0,0-34.5,34.5v12.3H226.9v17.7H173a46.6,46.6,0,0,0-46.6,46.6V559.6A46.6,46.6,0,0,0,173,606.2H488.5a46.6,46.6,0,0,0,46.6-46.6V381.2A46.6,46.6,0,0,0,488.5,334.6Zm-202.4-30a8,8,0,0,1,8-8h73.3a8,8,0,0,1,8,8v12.3h-9.7v17.7H295.8V316.9h-9.7ZM371,535.2c-8.7,9.2-20,14.1-33.9,14.8v20H325.5V550.2c-9.9-1.3-17.9-3.5-24.1-6.7s-11.6-8.3-16.1-15.4-7.1-15.8-7.8-26.1l19.9-3.7q2.3,15.9,8.1,23.4c5.6,7.1,12.2,11,20,11.8v-63a83.7,83.7,0,0,1-25-9.4A36.6,36.6,0,0,1,286,446.4a43.5,43.5,0,0,1-5.1-21.2c0-14,4.9-25.4,14.9-34.1q10.1-8.9,29.7-10.8v-9.5h11.6v9.5c11.5,1.1,20.7,4.5,27.4,10.1,8.6,7.2,13.8,17,15.6,29.6l-20.4,3c-1.2-7.7-3.6-13.7-7.3-17.8s-8.8-6.9-15.3-8.2v57c10,2.5,16.6,4.5,19.8,5.8a52,52,0,0,1,15.1,9.9,39.5,39.5,0,0,1,8.9,13.9,46.7,46.7,0,0,1,3.2,17.3C384.1,514.6,379.7,526.1,371,535.2Zm-33.9-61.9v60.2a29.6,29.6,0,0,0,19.1-10c5-5.7,7.5-12.8,7.5-21.2s-1.7-13-5.3-17.3S347.8,476.7,337.1,473.3ZM307.3,406a26,26,0,0,0-6.7,17.7c0,6.7,1.9,12.4,5.7,16.9s10.2,8.2,19.2,10.9V396.8C317.8,397.9,311.7,401,307.3,406Z"/></g></g><g id="maskam"><circle id="mask" class="cls-2" cx="330.5" cy="323.5" r="466.7"/></g><script type="text/javascript">const path = document.querySelector("#partnerships_path");const mask = document.querySelector("#mask");mask.addEventListener("mouseover", function(e){    path.classList.remove("cls-1");    path.classList.remove("cls-5");    path.classList.add("cls-4");});mask.addEventListener("mouseout", function(e){    path.classList.remove("cls-1");    path.classList.remove("cls-4");    path.classList.add("cls-5");});</script></svg>