<svg xmlns="http://www.w3.org/2000/svg" xmlns:xlink="http://www.w3.org/1999/xlink" viewBox="0 0 250 250"><defs><style>.cls-1{fill:#fff;}.cls-2{fill:#181818;opacity:0.01;}</style></defs><g id="partner_icon"><g id="partner_icon_group"><path id="hand_left" class="cls-1" d="M87.4,83.5l-6-5.6L64.6,101.8l-18,25.6,5.7,5.3a2.3,2.3,0,0,1,.2,2.9l-.9,1.2a9.4,9.4,0,0,0,1.1,11.8l7.5,7,13.4-12.7,4.1-4.2a15.7,15.7,0,0,1,2.6-1.9,10.4,10.4,0,0,1,4.9-1.2h0a9.6,9.6,0,0,1,5.5,1.6,11.7,11.7,0,0,1,3.5,3.2h.1a3.6,3.6,0,0,1,.7,1l.2.3.4.7.2.5.3.6a4.3,4.3,0,0,0,.1.5l.3.7a1.1,1.1,0,0,0,.1.5c0,.2.1.4.1.7a.7.7,0,0,1,.1.5,1.5,1.5,0,0,1,.1.7.7.7,0,0,1,.1.5v.7a4.3,4.3,0,0,1,.1.5c0,.2-.1.5-.1.7v.3h.3l.6-.4h.3l.6-.3H99l.9-.3h.2l.7-.2H103a10.9,10.9,0,0,1,8.9,4.8h.2l.7,1.1c0,.1.1.2.2.4a2.5,2.5,0,0,0,.4.7c0,.2.1.3.2.5a1.4,1.4,0,0,1,.2.7.8.8,0,0,1,.2.5,1.4,1.4,0,0,1,.2.7c.1.1.1.3.2.5s.1.4.1.7a.9.9,0,0,1,.1.5c0,.3.1.5.1.7v.6a1.3,1.3,0,0,1,.1.6v1.3a1.3,1.3,0,0,0-.1.6,21996312964334.2,21996312964334.2,0,0,0-.2,1.2,2,2,0,0,1-.1.7,4.3,4.3,0,0,0-.1.5,1.4,1.4,0,0,0-.2.7c-.1.1-.1.3-.2.5a1.4,1.4,0,0,0-.2.6l-.3.5-.3.6c-.1.2-.1.4-.2.5l-.4.6-.3.5-.5.6c0,.1-.1.2-.2.3h1.2l1,.2h0l1,.4h.1l1,.5h.1l.9.6h.1l.8.7h.2l.7.8h.1l.8.9v.2l.6.8v.3a2.1,2.1,0,0,0,.4.6c0,.1.1.2.1.3l.3.6v.3l.4.9h0l.3,1v.3a6.4,6.4,0,0,1,.2.7v.3a1.7,1.7,0,0,1,.1.7.4.4,0,0,0,.1.3v.9h0v1.3a1.7,1.7,0,0,1-.1.7v.3c0,.3-.1.5-.1.7v.3a2.9,2.9,0,0,0-.2.9h-.1a2.9,2.9,0,0,1-.2.9h.8a11.2,11.2,0,0,1,8.9,4.8v.2a14.6,14.6,0,0,1-.5,17.8l-.2.2-4.8,4.6,6.5,6.1a7.3,7.3,0,0,0,5.2,2.1,7.8,7.8,0,0,0,6.3-3.4v-.2a10.4,10.4,0,0,0-1.1-13.1h-.3l-.3-.7h-.1a2.6,2.6,0,0,1,.4-1.5h0c.1-.1.1-.2.2-.2h0a2,2,0,0,1,1.4-.6h0a2,2,0,0,1,.9.5h0l3.3,3.1a7.9,7.9,0,0,0,5.1,2.1,8.1,8.1,0,0,0,6.4-3.4v-.2h.1a10.4,10.4,0,0,0,.8-10.1l-.6-1.2a2.2,2.2,0,0,1,.2-2.6,1.5,1.5,0,0,1,2.3-.1l1.1,1a8,8,0,0,0,5.2,2.1,7.8,7.8,0,0,0,6.3-3.4v-.2a10.2,10.2,0,0,0-1.1-13.1,2.1,2.1,0,0,1-.4-.6h-.2a2.3,2.3,0,0,1,.4-1.8c0-.1,0-.1.1-.2a1.6,1.6,0,0,1,1.7-.5h.1l.5.3h0l2.8,2.6a7.5,7.5,0,0,0,5.2,2.1h0a7.9,7.9,0,0,0,6.3-3.4v-.2a9.8,9.8,0,0,0,1.8-6.9,9.3,9.3,0,0,0-2.9-6.2l-28.4-26.5L119.9,105l-4.6-1.3-5.4-1.6-4.8,1.1c0,7.3-.3,12.3-.9,14.8-3,12.6-18.2,12.7-18.8,12.7a1.6,1.6,0,0,1-1.3-.6,2.5,2.5,0,0,1-.5-1.5l.2-6.3.5-15.1L85,85.8a2.3,2.3,0,0,1,1.3-1.9l1.2-.4Z"/><path id="sleeve_left" class="cls-1" d="M43.2,29.8,0,91.4l40.4,38.5,2.4-3.4,19-27.2,21.8-31Zm-3.8,81.3c-3.7,0-6.6-3.4-6.6-7.6s2.9-7.6,6.6-7.6,6.7,3.4,6.7,7.6S43.1,111.1,39.4,111.1Z"/><path id="hand_right" class="cls-1" d="M159.1,78.1l-.9-1.1-.2-.3-.3-.5a11,11,0,0,0-2.8-2.9h-.1a6.4,6.4,0,0,0-2.3-1.2h-.9l-1.6-.2h-.9l-1.8.5h-.1l-17,3.6-21.7,4.5h-.1L88.5,87.4l-.8,23.2-.5,15.9a25.1,25.1,0,0,0,3.9-.7c3.9-1.1,8.4-3.5,9.7-8.8.3-1.3.8-4.8.8-14.5a3.4,3.4,0,0,1-.1-1c0-.2.1-.5.1-.7a2,2,0,0,1,1.4-1.3l6.6-1.4h.7l11.4,3.2.8.4,7.3,5.7,33.1,25.9h.1l22.4,20.8,10.1-9.8a11.9,11.9,0,0,0,1.6-14.8,2.3,2.3,0,0,1,.3-2.7l5.9-5.7L167.2,73l-5.6,5.4A1.6,1.6,0,0,1,159.1,78.1Z"/><path id="sleeve_right" class="cls-1" d="M164.4,63.1l4.3,5.7h0l38.5,51.2h0l2.1,2.8L250,85,205.1,25Zm49.5,30.6c3.7,0,6.6,3.4,6.6,7.6s-2.9,7.6-6.6,7.6-6.7-3.4-6.7-7.6S210.2,93.7,213.9,93.7Z"/><path id="finger_four" class="cls-1" d="M71,175.1l1.4-1.5,18.2-17.4.9-1a10.6,10.6,0,0,0,1-10.7l-.9-1.4v-.2a7.8,7.8,0,0,0-6.3-3.3,6.9,6.9,0,0,0-3.4.9,5.9,5.9,0,0,0-1.8,1.3l-4.1,4.1L60.3,160.7a8.4,8.4,0,0,0-1.6,2.3h-.1a10.1,10.1,0,0,0,.8,10.7v.2a7.6,7.6,0,0,0,6.2,3.3h0A7.9,7.9,0,0,0,71,175.1Z"/><path id="finger_three" class="cls-1" d="M93.5,158.6h0l-.6.6L77.1,174.4l-3.6,3.5a11.5,11.5,0,0,0,1.6,10.7v.2a7.6,7.6,0,0,0,6.2,3.3h0a7.2,7.2,0,0,0,4.2-1.3l3.1-2.9,1.1-1.3h.1l18.4-17.7a10.3,10.3,0,0,0,1.1-13.1l-.2-.2a7.6,7.6,0,0,0-6.2-3.3,7.9,7.9,0,0,0-5.3,2.2l-3.6,3.5h0Z"/><path id="finger_two" class="cls-1" d="M116.3,191.2a4.7,4.7,0,0,0,.9-1.2,9.4,9.4,0,0,0,1.5-6.5,2.2,2.2,0,0,0-.1-.8l-.3-1.4a11.5,11.5,0,0,0-1.4-2.7l-.2-.2a7.6,7.6,0,0,0-3.6-2.8,5.8,5.8,0,0,0-2.6-.5,7.3,7.3,0,0,0-4.7,1.7l-.6.5L90.4,191.5h-.1a10.3,10.3,0,0,0,.5,11.3v.2a8,8,0,0,0,6.3,3.3,7.8,7.8,0,0,0,5.1-2h0l3.3-3.1h.1l9.1-8.8.4-.3h.1a.2.2,0,0,0,.2-.2h.2l.3-.2h.3Z"/><path id="finger_one" class="cls-1" d="M128.4,209.1a10.1,10.1,0,0,0,.3-12.3v-.2a7.8,7.8,0,0,0-6.2-3.3,7.3,7.3,0,0,0-4.1,1.2l-1.2.9-9.4,9a6.2,6.2,0,0,0-.9,1.2,9.3,9.3,0,0,0-1,2h0a10.1,10.1,0,0,0,1.2,9.7l.2.2a7.8,7.8,0,0,0,6.2,3.2,7,7,0,0,0,5.2-2.2Z"/></g></g><g id="partner_icon_mask_layer"><a xlink:href="/partnerships" target="_blank"><rect class="cls-2" width="250" height="250"/></a></g></svg>