<svg xmlns="http://www.w3.org/2000/svg" viewBox="0 0 191.9 300"><defs><style>
@font-face {
  font-family: "Poppins-Bold";
  src: url("../Fonts/Poppins/Poppins-Bold.ttf") format("truetype");
}

@font-face {
  font-family: "Poppins-BoldItalic";
  src: url("../Fonts/Poppins/Poppins-BoldItalic.ttf") format("truetype");
}

@font-face {
  font-family: "Poppins-ExtraBold";
  src: url("../Fonts/Poppins/Poppins-ExtraBold.ttf") format("truetype");
}

@font-face {
  font-family: "Poppins-ExtraBoldItalic";
  src: url("../Fonts/Poppins/Poppins-ExtraBoldItalic.ttf") format("truetype");
}

@font-face {
  font-family: "Poppins-ExtraLight";
  src: url("../Fonts/Poppins/Poppins-ExtraLight.ttf") format("truetype");
}

@font-face {
  font-family: "Poppins-ExtraLightItalic";
  src: url("../Fonts/Poppins/Poppins-ExtraLightItalic.ttf") format("truetype");
}

@font-face {
  font-family: "Poppins-Italic";
  src: url("../Fonts/Poppins/Poppins-Italic.ttf") format("truetype");
}

@font-face {
  font-family: "Poppins-Light";
  src: url("../Fonts/Poppins/Poppins-Light.ttf") format("truetype");
}

@font-face {
  font-family: "Poppins-LightItalic";
  src: url("../Fonts/Poppins/Poppins-LightItalic.ttf") format("truetype");
}

@font-face {
  font-family: "Poppins-Medium";
  src: url("../Fonts/Poppins/Poppins-Medium.ttf") format("truetype");
}

@font-face {
  font-family: "Poppins-MediumItalic";
  src: url("../Fonts/Poppins/Poppins-MediumItalic.ttf") format("truetype");
}

@font-face {
  font-family: "Poppins-Regular";
  src: url("../Fonts/Poppins/Poppins-Regular.ttf") format("truetype");
}

@font-face {
  font-family: "Poppins-SemiBold";
  src: url("../Fonts/Poppins/Poppins-SemiBold.ttf") format("truetype");
}

@font-face {
  font-family: "Poppins-SemiBoldItalic";
  src: url("../Fonts/Poppins/Poppins-SemiBoldItalic.ttf") format("truetype");
}

@font-face {
  font-family: "Poppins-Thin";
  src: url("../Fonts/Poppins/Poppins-Thin.ttf") format("truetype");
}

@font-face {
  font-family: "Poppins-ThinItalic";
  src: url("../Fonts/Poppins/Poppins-ThinItalic.ttf") format("truetype");
}




.cls-1{}.cls-2{fill:#313131}.cls-3{font-size:18px;letter-spacing:-0.06em;}.cls-3,.cls-5,.cls-6,.cls-7,.cls-8,.cls-9{fill:#fff;}.cls-3,.cls-5,.cls-6,.cls-8{stroke:#000;}.cls-10,.cls-3,.cls-5,.cls-6,.cls-9{stroke-miterlimit:10;}.cls-3,.cls-5,.cls-6,.cls-8,.cls-9{stroke-width:0.5px;}.cls-3,.cls-5{font-family:Poppins-Medium, Poppins;font-weight:500;}.cls-4{font-size:24px;letter-spacing:0.01em;}.cls-5{font-size:30px;letter-spacing:-0.06em;}.cls-6,.cls-7{fill-rule:evenodd;}.cls-7{stroke:#010000;}.cls-9{stroke:#fff;}.cls-10{fill:#00fff6;stroke:#1d1d1b;opacity:0.01;}




</style></defs><g id="premium"><g id="premium_back"><rect id="premium_background" class="cls-1" x="-0.1" y="0.3" width="192" height="300" rx="12"/><rect id="black_background" class="cls-2" x="5" y="26" width="181.9" height="251.25"/></g><g id="premium_text"><text id="premium_protection_price" class="cls-3" transform="translate(54.4 234.7)">Starting at<tspan class="cls-4"><tspan x="0.9" y="24">$59.99</tspan></tspan></text><text id="premium_protection_text" class="cls-5" transform="translate(35.8 153.3)">PREMIUM<tspan x="-23.4" y="33">PROTECTION</tspan></text></g><g id="monitor"><path id="monitor_screen_border" class="cls-6" d="M52.6,98V47.9a1.9,1.9,0,0,1,2-1.9h83.2a1.8,1.8,0,0,1,1.9,1.9V98Z"/><rect id="monitor_black_screen" x="56.9" y="50.3" width="78.6" height="43.3"/><path id="monitor_stand" class="cls-7" d="M52.6,97.2V103a2,2,0,0,0,2,1.9H88l-2.3,8.6-3.4.5v1h29.2v-1l-3.4-.5-2.3-8.6h32a1.9,1.9,0,0,0,1.9-1.9V97.2Z"/></g><g id="cell"><path id="cell_screen_border" class="cls-6" d="M123.8,72.4h18.7c1,0,1.8,1.1,1.8,2.5v37.7c0,1.3-.8,2.4-1.8,2.4H123.8c-.9,0-1.7-1.1-1.7-2.4V74.9C122.1,73.5,122.9,72.4,123.8,72.4Z"/><rect id="cell_black_screen" x="123.2" y="74" width="19.9" height="39.52"/></g><g id="tablet"><path id="tablet_screen_border" class="cls-8" d="M83.3,81.1a1.7,1.7,0,0,0-1.7-1.8H36.8A1.8,1.8,0,0,0,35,81.1V115H83.3ZM80.7,113h-43V82.8h43Z"/><rect id="tablet_black_screen" x="37.2" y="81.4" width="44" height="31.51"/></g><animate attributeName="fill" from="#000000" to="#606060" dur="1ms" fill="freeze"/><animate attributeName="fill" attributeType="CSS" from="#606060" to="#a350a3" dur="500ms" begin="maskam.mouseover" end="maskam.mouseout" fill="freeze"/><animate attributeName="fill" attributeType="CSS" from="#a350a3" to="#606060" dur="200ms" begin="maskam.mouseout" end="maskam.mouseover"  fill="freeze"/></g><g id="ratings"><g id="rating_4"><path id="rating_stroke" class="cls-9" d="M116,20.5l-.5-.3a9,9,0,0,1-5.4-7.9V7.6l1.2.5h2a3.8,3.8,0,0,0,2-1.3l.5-.7.3-.7a2.5,2.5,0,0,1,.3.7l.3.6a3.6,3.6,0,0,0,2,1.4h2.1l1.2-.5V9.8c-.1,1.9-.1,2.3-.1,2.4a8.8,8.8,0,0,1-5.3,8ZM110.4,8.2V9.8c.1,1.5.1,2.3.1,2.5a8.8,8.8,0,0,0,5.1,7.6h.7c.2-.1,5.1-2.2,5.1-7.7a11.1,11.1,0,0,0,.1-2.4V8.2l-.6.2a4.4,4.4,0,0,1-1.2.2l-1.2-.2c-1.6-.4-2.1-1.3-2.1-1.4l-.2-.4-.2-.4-.2.4-.2.4a5.8,5.8,0,0,1-2.2,1.4l-1.2.2c-.6,0-1.1-.1-1.1-.2h0Z"/><path id="rating_background" d="M118.4,8.9a3.9,3.9,0,0,1-2.5-1.7,4.3,4.3,0,0,1-2.4,1.7,4.8,4.8,0,0,1-2.6,0v.9a16.8,16.8,0,0,0,.1,2.5,8.1,8.1,0,0,0,4.8,7.2h.3c.2-.1,4.9-2.1,4.9-7.3V8.9A4.5,4.5,0,0,1,118.4,8.9Z"/></g><g id="rating_3"><path id="rating_stroke-2" data-name="rating_stroke" class="cls-9" d="M96,20.5l-.5-.3a9,9,0,0,1-5.4-7.9V7.6l1.2.5h2a3.8,3.8,0,0,0,2-1.3l.5-.7.3-.7a2.5,2.5,0,0,1,.3.7l.3.6a3.6,3.6,0,0,0,2,1.4h2.1l1.2-.5V9.8c-.1,1.9-.1,2.3-.1,2.4a8.8,8.8,0,0,1-5.3,8ZM90.4,8.2V9.8c.1,1.5.1,2.3.1,2.5a8.8,8.8,0,0,0,5.1,7.6h.7c.2-.1,5.1-2.2,5.1-7.7a11.1,11.1,0,0,0,.1-2.4V8.2l-.6.2a4.4,4.4,0,0,1-1.2.2l-1.2-.2C96.9,8,96.4,7.1,96.4,7l-.2-.4L96,6.2l-.2.4-.2.4a5.8,5.8,0,0,1-2.2,1.4l-1.2.2c-.6,0-1.1-.1-1.1-.2h0Z"/><path id="rating_background-2" data-name="rating_background" d="M98.4,8.9a3.9,3.9,0,0,1-2.5-1.7,4.3,4.3,0,0,1-2.4,1.7,4.8,4.8,0,0,1-2.6,0v.9a16.8,16.8,0,0,0,.1,2.5,8.1,8.1,0,0,0,4.8,7.2h.3c.2-.1,4.9-2.1,4.9-7.3V8.9A4.5,4.5,0,0,1,98.4,8.9Z"/></g><g id="rating_5"><path id="rating_stroke-3" data-name="rating_stroke" class="cls-9" d="M136,20.5l-.5-.3a9,9,0,0,1-5.4-7.9V7.6l1.2.5h2a3.8,3.8,0,0,0,2-1.3l.5-.7.3-.7a2.5,2.5,0,0,1,.3.7l.3.6a3.6,3.6,0,0,0,2,1.4h2.1l1.2-.5V9.8c-.1,1.9-.1,2.3-.1,2.4a8.8,8.8,0,0,1-5.3,8ZM130.4,8.2V9.8c.1,1.5.1,2.3.1,2.5a8.8,8.8,0,0,0,5.1,7.6h.7c.2-.1,5.1-2.2,5.1-7.7a11.1,11.1,0,0,0,.1-2.4V8.2l-.6.2a4.4,4.4,0,0,1-1.2.2l-1.2-.2c-1.6-.4-2.1-1.3-2.1-1.4l-.2-.4-.2-.4-.2.4a1.4,1.4,0,0,0-.2.4,5.8,5.8,0,0,1-2.2,1.4l-1.2.2c-.6,0-1.1-.1-1.1-.2h0Z"/><path id="rating_background-3" data-name="rating_background" d="M138.4,8.9a3.9,3.9,0,0,1-2.5-1.7,4.3,4.3,0,0,1-2.4,1.7,4.8,4.8,0,0,1-2.6,0v.9a16.8,16.8,0,0,0,.1,2.5,8.1,8.1,0,0,0,4.8,7.2h.3c.2-.1,4.9-2.1,4.9-7.3V8.9A4.5,4.5,0,0,1,138.4,8.9Z"/></g><g id="rating_1"><path id="rating_stroke-4" data-name="rating_stroke" class="cls-9" d="M56,20.5l-.5-.3a9,9,0,0,1-5.4-7.9V7.6l1.2.5h2a3.8,3.8,0,0,0,2-1.3l.5-.7.3-.7a2.5,2.5,0,0,1,.3.7l.3.6a3.6,3.6,0,0,0,2,1.4h2.1l1.2-.5V9.8c-.1,1.9-.1,2.3-.1,2.4a8.8,8.8,0,0,1-5.3,8ZM50.4,8.2V9.8c.1,1.5.1,2.3.1,2.5a8.8,8.8,0,0,0,5.1,7.6h.7c.2-.1,5.1-2.2,5.1-7.7a11.1,11.1,0,0,0,.1-2.4V8.2l-.6.2a4.4,4.4,0,0,1-1.2.2l-1.2-.2C56.9,8,56.4,7.1,56.4,7l-.2-.4L56,6.2l-.2.4-.2.4a5.8,5.8,0,0,1-2.2,1.4l-1.2.2c-.6,0-1.1-.1-1.1-.2h0Z"/><path id="rating_background-4" data-name="rating_background" d="M58.4,8.9a3.9,3.9,0,0,1-2.5-1.7,4.3,4.3,0,0,1-2.4,1.7,4.8,4.8,0,0,1-2.6,0v.9a16.8,16.8,0,0,0,.1,2.5,8.1,8.1,0,0,0,4.8,7.2h.3c.2-.1,4.9-2.1,4.9-7.3V8.9A4.5,4.5,0,0,1,58.4,8.9Z"/></g><g id="rating_2"><path id="rating_stroke-5" data-name="rating_stroke" class="cls-9" d="M76,20.5l-.5-.3a9,9,0,0,1-5.4-7.9V7.6l1.2.5h2a3.8,3.8,0,0,0,2-1.3l.5-.7.3-.7a2.5,2.5,0,0,1,.3.7l.3.6a3.6,3.6,0,0,0,2,1.4h2.1l1.2-.5V9.8c-.1,1.9-.1,2.3-.1,2.4a8.8,8.8,0,0,1-5.3,8ZM70.4,8.2V9.8c.1,1.5.1,2.3.1,2.5a8.8,8.8,0,0,0,5.1,7.6h.7c.2-.1,5.1-2.2,5.1-7.7a11.1,11.1,0,0,0,.1-2.4V8.2l-.6.2a4.4,4.4,0,0,1-1.2.2l-1.2-.2C76.9,8,76.4,7.1,76.4,7l-.2-.4L76,6.2l-.2.4-.2.4a5.8,5.8,0,0,1-2.2,1.4l-1.2.2c-.6,0-1.1-.1-1.1-.2h0Z"/><path id="rating_background-5" data-name="rating_background" d="M78.4,8.9a3.9,3.9,0,0,1-2.5-1.7,4.3,4.3,0,0,1-2.4,1.7,4.8,4.8,0,0,1-2.6,0v.9a16.8,16.8,0,0,0,.1,2.5,8.1,8.1,0,0,0,4.8,7.2h.3c.2-.1,4.9-2.1,4.9-7.3V8.9A4.5,4.5,0,0,1,78.4,8.9Z"/></g></g><g id="maskam"><rect class="cls-10" width="191.9" height="300"/></g></svg>