<svg xmlns="http://www.w3.org/2000/svg" xmlns:xlink="http://www.w3.org/1999/xlink" viewBox="0 0 250 250"><defs><style>.cls-1,.cls-2{fill:#fff;}.cls-2{fill-rule:evenodd;}.cls-3{fill:#151515;opacity:0.01;}</style></defs><g id="shopping_cart_icon"><g id="shopping_cart_icon_group"><ellipse id="shopping_cart_icon_left_wheel" class="cls-1" cx="116.8" cy="206.8" rx="16.3" ry="18.2"/><ellipse id="shopping_cart_icon_right_wheel" class="cls-1" cx="185" cy="206.8" rx="16.3" ry="18.2"/><path id="shopping_cart_icon_top" class="cls-2" d="M58.2,63.1H234.9l1.7-5.6c1-3.2,4.7-5,8.4-4.2s5.7,4.1,4.8,7.2l-30.6,98.9h0l-1,3.4v.2l-.9,2.8v.5c-1.1,1.1-2.5.9-5.6.9H90.3l2.1,6.6H224.7c3.8,0,6.8,2.6,6.8,5.9s-3,5.9-6.8,5.9H87.2a6.9,6.9,0,0,1-6.7-4.5L38.4,44.8,5,36.6C1.4,35.7-.7,32.5.2,29.4S5,24.3,8.6,25.2l37.1,9.1a8,8,0,0,1,2.5,1.1l1.3-.4,1,3.3a.3.3,0,0,1,.1.2l1,3.4h0l6.6,21.2Zm171,32H63.8l26.5,72.1,135.3-60.3,3.6-11.8Z"/></g></g><g id="shopping_cart_mask_layer"><a xlink:href="/home-store" target="_blank"><rect class="cls-3" y="-35" width="250" height="250"/></a></g></svg>