<svg xmlns="http://www.w3.org/2000/svg" xmlns:xlink="http://www.w3.org/1999/xlink" viewBox="0 0 250 250"><defs><style>.cls-1{fill:#fff;}.cls-2{fill:#161616;opacity:0.01;}</style></defs><g id="support_icon_layer"><path id="support_icon" class="cls-1" d="M232.7,174l-30.6,24.5c-23.4,18.7-61.3,18.7-84.7,0L33.1,131c-23.3-18.6-23.3-49,0-67.7L52.7,47.7a3.1,3.1,0,0,0,.9,1.1l26,20.8a6.3,6.3,0,0,0,3.7,1.2A5.9,5.9,0,0,0,87,69.6a3.7,3.7,0,0,0,0-5.9L61,42.9a6.1,6.1,0,0,0-1.4-.7l4.2-3.4a6.9,6.9,0,0,1,8,0l30.6,24.5a4.1,4.1,0,0,1,1.7,3.2,4,4,0,0,1-1.7,3.2L87.1,82c-10.5,8.4-10.5,22,0,30.4l53.6,42.9c7.3,5.8,18.1,9.9,27.6,5.2a82.8,82.8,0,0,0,13.3-9.3l28.3,22.6a5.8,5.8,0,0,0,3.6,1.2,5.9,5.9,0,0,0,3.7-1.2,3.6,3.6,0,0,0,0-5.9L189.9,146l4.2-2.9a6.9,6.9,0,0,1,8,0l30.6,24.5A3.9,3.9,0,0,1,232.7,174Z"/></g><g id="support_icon_mask_layer"><a xlink:href="/support" target="_blank"><rect id="support_icon_mask" class="cls-2" x="0.4" y="-24.9" width="250" height="250"/></a></g></svg>