<svg xmlns="http://www.w3.org/2000/svg" xmlns:xlink="http://www.w3.org/1999/xlink" viewBox="0 0 24 24"><g id="twitter-layer"><g id="twitter-group"><path id="path-2" d="M12,23A11,11,0,1,1,23,12,11,11,0,0,1,12,23Z" style="fill:#47c8f5"/><path id="path-1" d="M18.3,8,17,8.4l.7-.6a2,2,0,0,0,.4-.8H18a4.7,4.7,0,0,1-1.5.6h-.3a1.8,1.8,0,0,0-.7-.5l-1.1-.2a3.5,3.5,0,0,0-1.1.3,3.5,3.5,0,0,0-.9.7,5.4,5.4,0,0,0-.5,1.1,4.1,4.1,0,0,0-.1,1.1c.1.1.1.1,0,.1A8.8,8.8,0,0,1,6.5,7.3H6.4a2.4,2.4,0,0,0,.4,3.1l.3.3a2.1,2.1,0,0,1-1-.3H6v.3A3.2,3.2,0,0,0,7.7,13H7a2.7,2.7,0,0,0,2.1,1.7h.3c-.3.4-1.1.6-1.5.8a5.3,5.3,0,0,1-2.2.2H5.6c-.1.1,0,.1,0,.1l.5.3,1.4.6A7.6,7.6,0,0,0,15,15.2a7.6,7.6,0,0,0,2.1-5.8h.2a5.2,5.2,0,0,0,1-1.1V8h-.1Z" style="fill:#fff"/></g></g><g id="maskam"><a xlink:href="https://www.twitter.com" target="_blank"><rect id="mask" width="24" height="24" style="fill:#fff;opacity:0.01"/></a></g></svg>