<svg xmlns="http://www.w3.org/2000/svg" xmlns:xlink="http://www.w3.org/1999/xlink" viewBox="0 0 24 24"><g id="whatsapp-layer"><g id="whatsapp-group"><path id="w-path-3" d="M12,23A11,11,0,1,1,23,12,11,11,0,0,1,12,23Z" style="fill:#86c76b"/><path id="w-path-2" d="M12.5,4.8a6.7,6.7,0,0,0-6.6,6.7,6.5,6.5,0,0,0,1,3.6l-1,2.2a.7.7,0,0,0,.1.6l.5.2h.1l2.8-.8a5.8,5.8,0,0,0,3.1.8,6.7,6.7,0,1,0,0-13.3Zm0,12.2a5,5,0,0,1-2.7-.8H9.3l-1.8.5.6-1.4a.6.6,0,0,0,0-.6A5.6,5.6,0,0,1,7,11.5,5.5,5.5,0,1,1,12.5,17Z" style="fill:#fff;fill-rule:evenodd"/><path id="w-path-1" d="M15.1,12.5c-.3-.2-.7-.4-1-.2s-.4.5-.6.7h-.3A5,5,0,0,1,11,11.1c-.1-.1,0-.2.1-.3a4.3,4.3,0,0,0,.4-.7,1.9,1.9,0,0,0-.2-.7,1.8,1.8,0,0,0-.6-.9,1.1,1.1,0,0,0-.8.1A2,2,0,0,0,9.3,10v.4a3.1,3.1,0,0,0,.5,1,2.1,2.1,0,0,0,.4.6A7.7,7.7,0,0,0,12,13.8l1.2.5a2.3,2.3,0,0,0,1.4.2,1.6,1.6,0,0,0,1.2-.9c0-.1.1-.3,0-.5S15.3,12.6,15.1,12.5Z" style="fill:#fff;fill-rule:evenodd"/></g></g><g id="maskam"><a xlink:href="https://www.whatsapp.com" target="_blank"><rect id="mask" width="24" height="24" style="fill:#fff;opacity:0.01"/></a></g></svg>