<svg xmlns="http://www.w3.org/2000/svg" xmlns:xlink="http://www.w3.org/1999/xlink" viewBox="0 0 24 24"><g id="youtube"><g id="y-group"><path id="y-path-2" d="M12,23A11,11,0,1,1,23,12,11,11,0,0,1,12,23Z" style="fill:#ed2224"/><path id="y-path-1" d="M18.6,10.3a2.9,2.9,0,0,0-2.8-2.8H8.4a2.9,2.9,0,0,0-2.8,2.8v3.5a2.9,2.9,0,0,0,2.8,2.8h7.4a2.9,2.9,0,0,0,2.8-2.8ZM14,12.2l-3,1.6c-.1.1-.2,0-.2-.1V10.4c0-.2.1-.3.2-.2l3,1.7C14.1,12,14.1,12.2,14,12.2Z" style="fill:#fff"/></g></g><g id="maskam"><a xlink:href="https://www.youtube.com" target="_blank"><rect id="mask" width="24" height="24" style="fill:#fff;opacity:0.01"/></a></g></svg>